<mxfile host="Electron" modified="2024-07-25T14:25:08.863Z" agent="Mozilla/5.0 (Macintosh; Intel Mac OS X 10_15_7) AppleWebKit/537.36 (KHTML, like Gecko) draw.io/24.6.4 Chrome/124.0.6367.207 Electron/30.0.6 Safari/537.36" etag="p3HLny3r3epXgv-zzj-y" version="24.6.4" type="device" pages="2">
  <diagram name="Voicebot" id="AgKNxdyxRzb5iKQTvzNA">
    <mxGraphModel dx="1941" dy="878" grid="1" gridSize="10" guides="1" tooltips="1" connect="1" arrows="1" fold="1" page="1" pageScale="1" pageWidth="827" pageHeight="1169" math="0" shadow="0">
      <root>
        <mxCell id="0" />
        <mxCell id="1" parent="0" />
        <mxCell id="_Kxrb-t5wn4LIO3bqoOr-26" style="edgeStyle=orthogonalEdgeStyle;rounded=0;orthogonalLoop=1;jettySize=auto;html=1;exitX=-0.015;exitY=0.463;exitDx=0;exitDy=0;exitPerimeter=0;" parent="1" source="_Kxrb-t5wn4LIO3bqoOr-18" target="_Kxrb-t5wn4LIO3bqoOr-6" edge="1">
          <mxGeometry relative="1" as="geometry">
            <mxPoint x="550" y="545" as="sourcePoint" />
          </mxGeometry>
        </mxCell>
        <mxCell id="_Kxrb-t5wn4LIO3bqoOr-27" value="6. send&lt;div&gt;response&lt;/div&gt;" style="edgeLabel;html=1;align=center;verticalAlign=middle;resizable=0;points=[];" parent="_Kxrb-t5wn4LIO3bqoOr-26" vertex="1" connectable="0">
          <mxGeometry x="-0.2318" relative="1" as="geometry">
            <mxPoint as="offset" />
          </mxGeometry>
        </mxCell>
        <mxCell id="_Kxrb-t5wn4LIO3bqoOr-16" style="rounded=0;orthogonalLoop=1;jettySize=auto;html=1;exitX=-0.006;exitY=0.815;exitDx=0;exitDy=0;exitPerimeter=0;edgeStyle=orthogonalEdgeStyle;" parent="1" source="_Kxrb-t5wn4LIO3bqoOr-13" target="_Kxrb-t5wn4LIO3bqoOr-6" edge="1">
          <mxGeometry relative="1" as="geometry">
            <Array as="points">
              <mxPoint x="320" y="236" />
            </Array>
          </mxGeometry>
        </mxCell>
        <mxCell id="_Kxrb-t5wn4LIO3bqoOr-17" value="4. receives&lt;div&gt;&amp;nbsp;text&lt;/div&gt;" style="edgeLabel;html=1;align=center;verticalAlign=middle;resizable=0;points=[];" parent="_Kxrb-t5wn4LIO3bqoOr-16" vertex="1" connectable="0">
          <mxGeometry x="0.0277" y="2" relative="1" as="geometry">
            <mxPoint x="49" y="1" as="offset" />
          </mxGeometry>
        </mxCell>
        <mxCell id="_Kxrb-t5wn4LIO3bqoOr-3" value="" style="edgeStyle=orthogonalEdgeStyle;rounded=0;orthogonalLoop=1;jettySize=auto;html=1;" parent="1" source="_Kxrb-t5wn4LIO3bqoOr-1" target="_Kxrb-t5wn4LIO3bqoOr-2" edge="1">
          <mxGeometry relative="1" as="geometry">
            <Array as="points">
              <mxPoint y="260" />
              <mxPoint y="260" />
            </Array>
          </mxGeometry>
        </mxCell>
        <mxCell id="_Kxrb-t5wn4LIO3bqoOr-4" value="1. call" style="edgeLabel;html=1;align=center;verticalAlign=middle;resizable=0;points=[];" parent="_Kxrb-t5wn4LIO3bqoOr-3" vertex="1" connectable="0">
          <mxGeometry x="-0.2615" y="2" relative="1" as="geometry">
            <mxPoint x="5" y="2" as="offset" />
          </mxGeometry>
        </mxCell>
        <mxCell id="_Kxrb-t5wn4LIO3bqoOr-8" style="edgeStyle=orthogonalEdgeStyle;rounded=0;orthogonalLoop=1;jettySize=auto;html=1;entryX=0.25;entryY=0;entryDx=0;entryDy=0;" parent="1" source="_Kxrb-t5wn4LIO3bqoOr-2" target="_Kxrb-t5wn4LIO3bqoOr-6" edge="1">
          <mxGeometry relative="1" as="geometry" />
        </mxCell>
        <mxCell id="_Kxrb-t5wn4LIO3bqoOr-10" value="2. send&amp;nbsp;&lt;div&gt;audio&lt;/div&gt;" style="edgeLabel;html=1;align=center;verticalAlign=middle;resizable=0;points=[];" parent="_Kxrb-t5wn4LIO3bqoOr-8" vertex="1" connectable="0">
          <mxGeometry x="0.382" y="1" relative="1" as="geometry">
            <mxPoint x="1" y="-21" as="offset" />
          </mxGeometry>
        </mxCell>
        <mxCell id="_Kxrb-t5wn4LIO3bqoOr-2" value="" style="shape=image;verticalLabelPosition=bottom;labelBackgroundColor=default;verticalAlign=top;aspect=fixed;imageAspect=0;image=https://upload.wikimedia.org/wikipedia/commons/thumb/2/20/Asterisk_logo.svg/1280px-Asterisk_logo.svg.png;" parent="1" vertex="1">
          <mxGeometry x="70" y="239.07" width="117" height="68.93" as="geometry" />
        </mxCell>
        <mxCell id="_Kxrb-t5wn4LIO3bqoOr-14" style="rounded=0;orthogonalLoop=1;jettySize=auto;html=1;entryX=0;entryY=0.5;entryDx=0;entryDy=0;edgeStyle=orthogonalEdgeStyle;" parent="1" source="_Kxrb-t5wn4LIO3bqoOr-6" target="_Kxrb-t5wn4LIO3bqoOr-13" edge="1">
          <mxGeometry relative="1" as="geometry">
            <Array as="points">
              <mxPoint x="288" y="195" />
            </Array>
          </mxGeometry>
        </mxCell>
        <mxCell id="_Kxrb-t5wn4LIO3bqoOr-15" value="3. send&lt;div&gt;&amp;nbsp;audio&lt;/div&gt;" style="edgeLabel;html=1;align=center;verticalAlign=middle;resizable=0;points=[];" parent="_Kxrb-t5wn4LIO3bqoOr-14" vertex="1" connectable="0">
          <mxGeometry x="-0.159" y="3" relative="1" as="geometry">
            <mxPoint x="91" y="6" as="offset" />
          </mxGeometry>
        </mxCell>
        <mxCell id="_Kxrb-t5wn4LIO3bqoOr-24" style="rounded=0;orthogonalLoop=1;jettySize=auto;html=1;exitX=0.919;exitY=1.013;exitDx=0;exitDy=0;exitPerimeter=0;edgeStyle=orthogonalEdgeStyle;entryX=0;entryY=0.25;entryDx=0;entryDy=0;" parent="1" source="_Kxrb-t5wn4LIO3bqoOr-6" target="_Kxrb-t5wn4LIO3bqoOr-18" edge="1">
          <mxGeometry relative="1" as="geometry">
            <mxPoint x="550" y="512.5" as="targetPoint" />
          </mxGeometry>
        </mxCell>
        <mxCell id="_Kxrb-t5wn4LIO3bqoOr-25" value="5. prompts" style="edgeLabel;html=1;align=center;verticalAlign=middle;resizable=0;points=[];" parent="_Kxrb-t5wn4LIO3bqoOr-24" vertex="1" connectable="0">
          <mxGeometry x="-0.1587" y="1" relative="1" as="geometry">
            <mxPoint x="31" as="offset" />
          </mxGeometry>
        </mxCell>
        <mxCell id="_Kxrb-t5wn4LIO3bqoOr-29" style="edgeStyle=orthogonalEdgeStyle;rounded=0;orthogonalLoop=1;jettySize=auto;html=1;entryX=0.116;entryY=1.023;entryDx=0;entryDy=0;entryPerimeter=0;" parent="1" source="_Kxrb-t5wn4LIO3bqoOr-6" target="_Kxrb-t5wn4LIO3bqoOr-13" edge="1">
          <mxGeometry relative="1" as="geometry">
            <Array as="points">
              <mxPoint x="340" y="320" />
              <mxPoint x="634" y="320" />
            </Array>
          </mxGeometry>
        </mxCell>
        <mxCell id="_Kxrb-t5wn4LIO3bqoOr-30" value="7. sends&lt;div&gt;&amp;nbsp;response&lt;/div&gt;" style="edgeLabel;html=1;align=center;verticalAlign=middle;resizable=0;points=[];" parent="_Kxrb-t5wn4LIO3bqoOr-29" vertex="1" connectable="0">
          <mxGeometry x="-0.2665" y="2" relative="1" as="geometry">
            <mxPoint x="27" y="2" as="offset" />
          </mxGeometry>
        </mxCell>
        <mxCell id="_Kxrb-t5wn4LIO3bqoOr-33" value="text" style="edgeLabel;html=1;align=center;verticalAlign=middle;resizable=0;points=[];" parent="_Kxrb-t5wn4LIO3bqoOr-29" vertex="1" connectable="0">
          <mxGeometry x="0.7324" y="-3" relative="1" as="geometry">
            <mxPoint x="-2" as="offset" />
          </mxGeometry>
        </mxCell>
        <mxCell id="_Kxrb-t5wn4LIO3bqoOr-35" style="edgeStyle=orthogonalEdgeStyle;rounded=0;orthogonalLoop=1;jettySize=auto;html=1;" parent="1" source="_Kxrb-t5wn4LIO3bqoOr-6" target="_Kxrb-t5wn4LIO3bqoOr-2" edge="1">
          <mxGeometry relative="1" as="geometry" />
        </mxCell>
        <mxCell id="_Kxrb-t5wn4LIO3bqoOr-36" value="9. sends&lt;br&gt;response" style="edgeLabel;html=1;align=center;verticalAlign=middle;resizable=0;points=[];" parent="_Kxrb-t5wn4LIO3bqoOr-35" vertex="1" connectable="0">
          <mxGeometry x="-0.259" y="-1" relative="1" as="geometry">
            <mxPoint x="-14" y="-44" as="offset" />
          </mxGeometry>
        </mxCell>
        <mxCell id="_Kxrb-t5wn4LIO3bqoOr-6" value="AudioSocket server" style="shape=image;verticalLabelPosition=bottom;labelBackgroundColor=default;verticalAlign=top;aspect=fixed;imageAspect=0;image=data:image/png,iVBORw0KGgoAAAANSUhEUgAAASsAAACpCAMAAABEdevhAAABgFBMVEX///9q1+T///0AAAD//v9o2ORq2OJq1+Zl1+H///z8///p9fbp9fRh1d9r2ueb4epf1OTj9vmb4eth0+T206H30aNt3O2M3OXy/P3o9fpt3uqD1+Bf1dyvqanm5ubB6u308vJn0dyAgIBn3+fIxMTW0tLP8vFy1OF9d3W86e9BkZO4s7OhnJyak5NwZmZ3bW3u7elOU1U3TVMoXGg9g4hRmqNbrrhfxdNetsZWo7FChZYzbXgxWl0aTVFVtrwgQEYiQD47P0E+eX5ny85bU1ktNDVdvcYnKyRCRkBYbWlLWFghS1VWpqpeYF3Cu71IP0MrcnFTs7AZLDpaSEsXODobVk4yWFI+g38uP0ktNEIaKCs4V1xbm58VVlgWGx0oNz4RRUceAAAuTUmfi21US0C6pId8alQ5NyrSr5XgwqK6lnUteITJrYJ1Vkj/26/syqYODx9UVEeR5NoXLSyYg2s7MjKD4d2p6N8qEwBeRzT/5ax0a1MIGhphVj2VgHKkmYDLXUWVAAAVF0lEQVR4nO1di1/bRraWhDQjC0uWsZGdsfyQnxhjCAQbKOTh8GhacJK7TbfZ2ybNXch281i4t83Cbfd291+/MyMbrKdtIkM26PsZhaCHZz6dc+bMOUcjhgkRIkSIECFChAgRIkSIECFChAgRIkSIECFChAgRIsS/N7jrbsAnikKlvNBcJFhqLiyUy7f5627RpwiusrC0vHJntdVeS0BoYKy3N77Y3FpZXKhcd9s+KVSay3dX7xkIIQEhgCEQAID/gGrrq/e7jVC+KCpzD75bR0gpAQAhZHs/5B+WhSwQFQ2Bjf2l3HW38/rR6DxcQxolhgWEG/KrwNqglLY3dwbZkq6twdeGxu4GixRFA4JJFNE+/C9WwD5LgoJB2ELGizl6TuHx48bNE7Jcp1XSAOZBQUAwubJIk6AguNa+194DJQAB0tpf5pjGozutdmt1N3vdjb8KVIqdr75ebt5mmIV9o4SJ0hQWj3oIK6ICiIU6BywdbHWbjfLjZvf7A2zzNa1290mrhBR8jtZ6VLjunkwahZ2n2wrWur07xcWWAoCG/uPO13NzzaXu9/OsAonN6qN070G2P/zx2efbmEtFe9gqsYooYClb+/Izd1Jzf1jDfgGEQFF29zQBagedbKG3r7yziqDY5wpqW03yVw6D/Mt/08YUw9LmDxqmGAolsLdzXb24EuSeYctDiBDg7poGNeVbYnYwF5wk4ZGtfL92brG0+xVzD0dkiwx7O3saJgv9sb2+V8LmHpS+K19zdyaKDrHeUBMAerCnQA08yGEWOE5iJC6Ct8zt50KPq9LTCt7B4D8zPN5KZPunEna8APrPqanvAfkNLl93fyaIxjz2N9F6q116uFGCQFvJYYFiqI6ZGya3pZkaeK9J/8/1dhLGmMfzCpZIUJuamvoBYTcMvShca3cmimUsVcoG7urUJu4rmm84D2m2FeKyo/v9P/ADbudzTcSOl9LCgoWwG4ZWP+OZ4its1jVC1csa7qr2yOUQ/lssO1DbI2KVqxTwVrrgqrknYp9VQD9OrSI8XVR+eHxFDb965J4ioBANmmpjTVPaxK5XsjYXfAnbfagRieniA61klFuIOBVa+xdExgDtM5YrwhVAX05NPdewI4Xe3Wb4DuZjwXJQdh0roXaXZxYIqVMWJm8/RNSdB7sa5Wr/Spt/tXiFuVL2Xk4daCwQS3cZpkj5sEhHuYUn0tpXDPOS7msO7ivcMS2/stoG5EpLV9v8K8WigX1QRXuJROw7oGcMQ+mYKg4ekyNcoa/MfZWiZV9h0+SKrW1hN630rHClrb9a5F7g4a90D2sSwBb6vslHrtkdPKZCubrDM8t4X2HBoqCVVWRyhVawcD37fK0VwcJ3SEFbazTyiZ7yTIdyZQkZNA6wy6DNl5kKlTnr6es9udJW2xu7uSvNWuCJRTQej0elS0fOeKbnLjKj5Vuyr9bQc8TiAV9A8xWTj5eWI5ZkzKMOsKxVOlNLBcu+R/0ohLL3X42e/3oFkKbzsYysyqKgyros65n6rfEJk9LpeLWar1ar8XR6tFNyi39+iHCPsfBsz2E+urtFayj9jxqJ+KFNl2je41YJ9snqkjniVXCVrqZkQyaDL9QgHlDwzJ0VZSMVl0b9dk5KV+sZw0jIaiKhqrKqGnqqGmX44TmE7IYCaOwT7Rece5vrJC+hQL3D2APFhQcaK/bipWj/CnjiIkw1I8siIJNYgSYDsO+nCOT/CdnID1UliUh+dUaWZVUgJ/fVArCCrNbqw7laEhWBnqlsLzp2Vu5oUEFr64p2r2vjKvdLDWKnvSdX2A2deGonXa+pJEYErCHIPuRa1f98TFQ8JgsqdDmZhAcSsegQtlcQoLkagUXzTdu+3H2k1Z4SI/ane/eeFAZ3NR7UlIvvUe5NOobMReo6zbsJPVFwAEA5E/W7hJQ3ZKwjxKa4ksVCPeZvul4QgwRJ8gFPfq1kNfZZbX2qh43afvHcaDWetLTBrxSMuYnmcjgmbqiA5JOoDkA3rkhf9bx3K/K6KJJUiz2LYLkC1mRv0ao8JFyxNF0D0UHnIl5X2fmixGoP+lx9qaG9p18vNReaxZ2tVgkJlvaiicauOCkjsh6qY+2rHPO4RBWonvI0CPnU+5bjOcxA9q9UWl2Za5Rz5ezcyirQENqbOse2AjWkr6+vGwj1c6sXXE1yLhipGlAQ3GyUkyw24yIXXDqlO7JS7hCgHPdqR/aeMmAp8UCMjHZrvtXWkcYqxsrhUZ+q13/ZFGgmWqHBVGht+0TjfHWZDFUjcUX6YLM5Es/EdaFGcnijiCbLYkV2R3Pbfj6e2WmIGnvw02zy+PAn7J4+Okwmj/963xCoQNGBCBuOgZMmGY/5OQFdBz53QJixjsgSk0+YQjUaVVgPPcia24ZQcOTgzf4/fJOkmD3GP7PJ5JsVzfRKnCcorcnE+SRGyuB7I4zaTUKIMGO9Rkxmvcc+tysIHmQVdcGrGegoOZs0WaI/yeRb4reaKXvbSUrbJQAdCFmZBCQ58DG4AnL93GZhQ51K+I99bpdwV8PFEvBohjDAVdLk6uQdqXQwubKepezZfbOAqDpNjMzSRV/l6QuuUjIYkyoCVwPfRW4qRbmC3x/PUhV8//490cLkb29bmtfF14ouFw+CqrG7SU0W16cqpo6ngP0rGC5e6bLmaTZh+2/J45PDo+JyceHow8lx8s0DxfMmKxMJisZ0rIDu1tSvp6ya70256qqpgKPrcA9qLOJwPghXXtcptfenitg5XcT+euW//+doq+Zp21j0zQSoqsteBmIIxJp5gaouXkYDCYy4g6yup1axpGaGuuOdHL5LX5cGJ4AOoAlUM8Rlb5mCoizrnq0R5Dq5QFQmLqHXMYIoOqvwLnZnHFGepZIf6VqXzMU6BUxxR/NwLUygr0aeD6anMaJR7605A+Y5w93/FARVNlJ1jBSeDLtrBQTkEhkRUBfUsReqgpyJYWRk2X1uyQLdEbbAPoMfV8uUKxLy7CJfrpSvR+WqqquqKut4Kw9u8Z9620RvTvez6xwQiELiLN77LikaS7i2CpKexgR3+yrKmXw0jW8GFhwpfpbw6BKwt3zO4bdbuHpBLtgpMMxQrn4ZVaoMSgAQ+1vhfMvSraCbQ1A14eolq0ZVOg+U8yTSYrvb2KNJYDLIzMYs17QCe5ox6hDwfK84QzpTXbvk8Bvm1vyskHKwwDC3p0jwoTOUq9HkqqZeIEE/9t/zJgsiqQtzGCz5LH0R2OfJh4vW+i0jOXJVBvV4lJCZSbhxpcaiEUuDeCLqrl2LWQ9ksnu+QzK6m80+q73KVhZb/lyhZ6NxJcWnb926RX/Ipgf6e9zELbOFdd3FWFHVkiIciY1ffB1/2otli7oRi0eJ2cA786rgtERCL3hqayueSLn0qWYz7tkD/wEVHWxomtZ6t4YEX660+8yI4CIcF6E/ZGP7HX9Mzyiiuxh2cZuoJ8fZM0ZpMlETjFR+mmqVRA6QiK7b+wZP02YOwn5fJbfhUrcpYWMIV6wCdQhIxMo/KIJeBRsXrbPQadhBmlhjWl0oDcb3uelMJl+l38+ZTHJMXncWUrMZiaFcObKKfFR39k6sWw+qtIa6xWSaDxTo1vgBru4GyRVHRgD71wk+IUvLyWQj6WQUtXGlSybHbgnYvIv3kbIeUnnnZ9tHB+bKp/XcgI45P5GLT0+5InkyNFnbLgjTY2Qg8eho7zuU00QeqQI6kk48k3GqYcZ6TOEhCoQrzY+r+kzMAzO2z0xvynpKdN6KBEkbcK4y4YKaYDdXNCpFRgV8Bbe8qd33wPqkpy03h38VEFdbfhkUHXtQIgXb+4XMMFxgmBe5pdt9KwBq4xQBxFXHNFDMELH00EAMjjh4FkDZlkP7Phgd1O74tDthVgH0Hhcjwa8BIuAA1J6FqAtmbmmAK7nKDZDFRdJRH0yfyYJ9EFTJqEakyksyYw6uVNs0ZyUgufLmKpXBOM1cIJXCnwvMzKRmYvQzM9PzEzP0IYRBrgRiOwachZh87r+6fQSnb5Uhl+Ylb67y9igKTNi4WvYLNIzB1QtPrsZH2qBUWbiyRnWrqn+kxZnHxzIyRIWnDdtFoGoLJc9dLkLk4GozwHqGvAxY1ub7WuOUpwlfrpyRUKAPr+OR7VwJeespi8anx1VdJhEGC1c1y9BRlaEwlCvLAWJqKFVczXoRgbVz1QyKq0JwXMVo4c4gV2LMMnydii4Py/rC3u0RuML3y3bSwnogA+EluEo7QemQGGCXKprevBDcqmofsoYicWu4w+G4qGCz7QvtgLi6PSZVeRriI0WM5x9zssrjaS9rS6vJVew/npOVGt/GEp99CFtpW0waANHGVSMYrlyrJH3ASwlSoEeqes8/YsL0k9OqI8onpwfkKm6MnrLvw+CG1jjGZbvjfpFnNFE5CISr0rg6+PNAnM+EoCZMPznqLL0jsdJzsUiNrYG43xw/TAnrjsvKg4NvrpEttoLh6otvlpfGqGmQqnkXmKmTqOzGFdfPQaUN/0HQHcPrpFOifbgYmDtnH/3l9fvDLwLhCrTeHCf/9dNHVjVwfa7suXAxfuG0x4Qxx0ACWRpmr9Kyg6vzmEyh8/r4OJn862owtr31dnZ2NvkhiFS9i1wRr7sfrzEu0z552p8qnsmLDq5i/VT/bpKWK7wPiKuN14Sr5IcAaoumnfYqcVHbmDYu0z7vaj0TpMzSngjB03WTrIX3x7QC5n0w9krZO6RVNccfXzhKfAb7OAjP/XaOqcl2JLShSinO+H9phKQybEZQlnpcLZ0cklK048ONgLj6QEpq/n748UooMTXBUbsjRPsqZD6IY0VmKFeC4TsflNI1ZyYj1df72y8PsRwcf5gKxr9S1qY+kArA3Y+miiG5dWcipO7d00h9hDIYoeosfDkHx8VYR+WDnD8feudOksnXu5VsMFyxtWb5p8P3AYgV0587WwCFtKcvGVVrI/imNW+usGFX3SIT51wVOovLeIhf2AuIqx2GKTeDqYTMO7liEymvo6XRvPjEmZcSSpgqxeGw4em6/YSiEQRT+MZ3g3vOK55w6iB01q2Y4E7hxVIuftA9o31VoaQ4bo4R5ezzooDiV2b5UUBscW5JZ4CHfUf0V2LSKdlplV3deijHI87vwpc8UyFw3psZhrOnxgKKi7JaJ8CnLWNuSW4BC4aDrPipyxCYqJ65DoxENG3dl5hoyun6Yqhp5xOJnWDMFav9GCBX+YTryCbbn/GT6rpbNhxwcXs82ESibi+ZjdRVkTwLYodalyIOKVwJiCu0RVY3CogrZtu1VBvqIJ/uS0aES9cN1eUwkYiP+8goqHo+zfVbyTHpPFBdS1ogiEScvdkKJudFuAoQdfdiO0FMGKf5ajyejlfzMd2NKTqA8WQodQW+QCxPywKleD4m68A9GK3HOeed518FJleF4Kjipj0qnslfVUHWdZ0kS7FIuFjxbYlnuLTPyIgnRTUADJIEh4qrWMlnDM87uCo8DMpeBckVtu5+Qw7oLXYquDygCulwyTN198JGAgFAAXqXn2OkJJqhtrWpElDtB5WrAB8QT+u+pXHekM0nS3nJnpUZAyDtVs/GVIIJyWCunhaCXKEhUncdyYdCjVGpkvhI3N2ajQB5mpp/R4C+fBBMjp5Fm4WhmZIxwDPDYwcuUFO0HI0nbmTMw7wPA7br7uN5NkCuAl3MgpT2jd2IhC7xdGJCWhLJ+NokD2B753XLg+MK62CwiHs/Q+IBVecjHE/9vEgEe0+nl+iHXPU0Jdm9yzzY44LgufIqO/cCTGTSZIVKWltLyymnjXGffRJqRAG9uNoOiqtgx0GKvDxOV4XTiFmj3PtgxGtjZV2hXEvTRVTdm1MMTK7uBjoOEkhM1Ri9ATr2HxmzPJfrT0256VGigBeXiNHonlc35tYCijOQ+WCgTFHEgT1x7g4AAKl4cK5oJWVG9NMAwPpHlufhr4CrleCZwkhnRtJDOUMCCK5R5thIjhoU5RSNQfiUPcytfTRLJjBX/ERWlKm7PNFgQ8KgMVP3MEekqntPd86hZqZ7yucdLGmuBWSv2O6opedjgkvPJKBPI6EO6kzEWxq4iFTf9jfxCTkVZyJkhRBfBOYz1Ca4YmaU1PF5dFeu5SNDo4yRs4Tq+owMKVcWjFS094yPv8nNtoPhSpjQAg09pM9YlxmLINdm6OJxwxeg4/I13WWY0OVahhQ6SpL51JM/V8H47QAcTHp1w3gsY5DV40QRCuQpYKOWqZN6LTJujbRYn1RNZQxVNR9IEEV8DSMTq3JE+cju4VxVWsGMg6V3OSbIubM7SDQ0NjMTi9XzcXN4Z/qzvxGAZ9TpeD6GGatlYvV6lZSDSPbn63yQCyh+hfYnz5QTkkQZY3zS78PAuQSLPcDfDYar0qPreIMcfQyV9/YeR7nEGOcG9DzO9kTWk/nEsBiIvZrU+lefFppB1H5AMnP+/FGeD0IJwef8DpNzcEEYd2XjRrzPi+kG4LijbwMPXn2SaLTQ5TJxF9CNpatbkvxa8bz0sVyhp2TFzJvwXtDiRz8VR+ofbwJTDFPY/0jrjjaJWN2M14AWP64UGdKF3ycT6Pv0sOuyTtToVKE/FJibw1VlC11+poM2yzfEWJloznsvMzqMqvnmDTFVfcwdaJfjCh0s3SipIpi7lEcKUet/F0Z5W8rnBL7766amOBbbGAJBe/fht8Pu8Mt/Tqj8/U3y7f3tIWvy2VHa/vHt8ezx6xtFVuMoOTs7e/LrF2D0pA7QSqu/ntCF3V9PNN31aaHxj97C/293DzTyIuIRqNK01v/97bj32oDfb8z76HO//pacJYKVPD7+59Q8QMowRSyVjNXdBtP4nTwxPfs+eXJjtLD4JvnP90SwZt8cFcvl7tYBi5yrMFJAASoIGRt3F+l7dMq/E8k6enPs9lrazxKd4zdHhKrjw+UC+X8h291f3dNLSOmtkUtpI/9BSKu1Vx8sNvheuGrhAz7v5OjmcFU8OTrB4vHbP8z3XRNwlebOn7dWW3trNYRRKpXA2l574+GLlcWF/stdaElm8RCr4e//ujHGPffTP8gD9UcNpl8+aBJWqDQWinM7T54sLz/ZWSoWs+WeCafvWOfN9H/xAzbtNyE32EOhg72rznk9gn8wmDuvPTVLJcrd5bLf8Z8bCsVuw3zd/HW35N8EPgW4IUKECBEiRIgQIUKECBEiRIgQIUKECBEiRIgQIULcUPw/k+8WijA40AUAAAAASUVORK5CYII=;imageBackground=none;" parent="1" vertex="1">
          <mxGeometry x="208.62" y="360" width="159.23" height="90" as="geometry" />
        </mxCell>
        <mxCell id="_Kxrb-t5wn4LIO3bqoOr-18" value="" style="shape=image;verticalLabelPosition=bottom;labelBackgroundColor=default;verticalAlign=top;aspect=fixed;imageAspect=0;image=data:image/png,iVBORw0KGgoAAAANSUhEUgAAAUIAAACcCAMAAAA9MFJFAAAAllBMVEX///9aF+5QAO1YE+63ofdgHO/BsvhJAO37+v5XDe53SvFfIu759f/Yz/rGufhTAO3e0/u7pveehPSxmfZvOPDKuPnQw/no3/2SdfPw6v7ArfhmMe+tlfbr5P1zQPDXyvr08P6njvWdfvR0RvDk2/yIYvJ8UfFmKO/MvvmLZvKVcvO2n/eegfSBVvHZzfvCtfikifWDW/I9vI2wAAAF40lEQVR4nO3daVuqQBiHcZhJEZczmra4hppLtljf/8sdPF11ZoB5eGCwtP73W2scfxcmDEiehxBCCFXVBSpezyBUAhVOGYQ16aOCyRoIHQOhcyB0DoTOgdA5EDoHQudA6BwInQOhcyB0jib87gP4U41PKEd1lNFIcgll2PBQRo1Qsgnb3zTHE68NQtdA6BwInQOhcyB0DoTOgdA5EDoHQudKEnZVq0ThjTb4qywzRGujT3BTahZ9bYROqRfSUl13wkCWSOiEl6rMEKExQz8sMwud8KXUC5FBBYTmCg8zZRKWGcKcYakFTYOwU+qF+AKEIAQhCEEIQhCCEIQg9EF4goSSe57aThhSQ+g/SBByv58QTKyE5O/pz1UxoWzddazt9ddvJQxXXfsQ3bn2k3ZCNSfG0HuZ2ggV8UI6W6k9WeWExDn6KYtQ3dpH8Ly6/mRWQlGnxrBlElIXG0ThNxHeVEA44hGOqDFsmYTUiugQhNmdAWEVb+RfTjgCoRNh90nxdmpAmEk4nAyEMnd9j0tYwSfyKREOR81AhX6ioxLKzYDX5uIMCLcPoUj5HZswniAv+wHeqRB2Fyr5Bv4aQm4nTjjtj21+/pGPTtgRhOTRyVcc4EXxH8DMN/DnFK3HyOtRz96OdYzMzk4YPhKz6B91meEf4XaV/QdQf+KjrtRwIxa7uLOonvB9D9D+Bn4vZtLXSLBeqD3QSu8BpgqVGPQifXAQ6o+k9wDNpAoGk6lnBkL2s0klwqeulwqEzOeKP2J212k/EDIJ4w+Q9T7KBAQhi1A1L4YWv4oI2XfEMvbpzodQXdr9KiK8YrYd60cW50PoB9tjE7KbafsM50QoVcYHMQiLEPphGDEJyYUqYoYVE5KLZF9BeNgDTBjO7GsfOqHcNJfWmgN9YfWYhNI+ibgjLjN8cMV7gHdviXenemYR0otde+tiFzseobL+vnfcxa53v6B52ANsLBOGwvqxXMWSKzsm4XctuR4uCFp+7AE2xon3cvBomVIVhA1mJ08o5/faM9WShtnHd5UQzphnnAY1bUInSCjHiacyDaW497KqgpD+CLV9mp48oXefWDsM/ShrSjj9ZCeMH0ycgR9k7dqAkCD0/gTmpNUKhAUJvX3CUCxAWJDQe0wa9lI/AkKa0OsnDNO7NiDMIfQWiXvSGafhQcgh9HamYViLzMdBmEvoPZuGamY+DMJ8Qm9tLjkkdm1+O2En0M7t2BZPGuPAOAcUGLs2i0B9Fuwowp4+jLEgVeofshjffnrRZiEESWiM0XEmjPZ//mc9RdLWfyqurp/Q2076n02uKMIbYxj9kT9l2uvH7FNtFv0JdXFc2xgj0h7ArX5cA6FzIHQOhM6B0DkQOgdC50DoHAidA6FzIHQOhM7xCX3Z/BktJ2W2hf7MOqCpRBGyLx049YSaRIUJn4R1PJ9P+GOSJRC5F+X+EsJ/iPNiiCBMFSO+FkEEYUZSiUviezEg5FQEEYSWYsQFDxGE1g6Iye/5grBoSuzyEUFIFm+Ju+QlPyAsmhIPNCII81PBQ/Z19SDkp8TKjliSUAQ/L/JWJipY2b68miC00wjj17hfLjqjhgtFI4rnbESTUGztOMRfgx/S8JW+qU4YPHcyfi1BaPlK128pelWCRBTNNCIIzaK5oBGD9V3iV0CYLJrnbYlLExGE6aJJDmKw1J1AmFW7H+ZsibP/UiDMrv0oc7bE2cdV0CC01X70c7bEwTsiCO01Llo5W+LgcDE9CKkavVrOljiue68gpOtt8t7Oa/PmBCBM1RhtyJv5SvNBEGZWHwQ5N1QFYW5X47zbSoMwt6sZb0sEIdF2wNkSQUi2XeZviSDM6XqWe6t9EOZ1vaa3RBAyumtSWyIIWd292bdEEDLrrIXl7DEI2XVWQSYiCAvUfcvaEkFYqO5DGhGEBbtPvZ1BWLibncCSq2s3D/p1JCAs1fRWKRA6Nr392BJBWLrDtXUgdGy4OGyJIHQqugwVCB2LLul/KIQYRZwvTCGEEEKu/QWW0Bm+rGzfTQAAAABJRU5ErkJggg==;" parent="1" vertex="1">
          <mxGeometry x="586.68" y="480" width="330.25" height="160" as="geometry" />
        </mxCell>
        <mxCell id="_Kxrb-t5wn4LIO3bqoOr-28" value="" style="group" parent="1" vertex="1" connectable="0">
          <mxGeometry x="596.93" y="130" width="320" height="170" as="geometry" />
        </mxCell>
        <mxCell id="_Kxrb-t5wn4LIO3bqoOr-13" value="" style="rounded=0;whiteSpace=wrap;html=1;" parent="_Kxrb-t5wn4LIO3bqoOr-28" vertex="1">
          <mxGeometry width="320" height="130" as="geometry" />
        </mxCell>
        <mxCell id="_Kxrb-t5wn4LIO3bqoOr-11" value="" style="shape=image;verticalLabelPosition=bottom;labelBackgroundColor=default;verticalAlign=top;aspect=fixed;imageAspect=0;image=data:image/png,iVBORw0KGgoAAAANSUhEUgAAAOEAAADhCAMAAAAJbSJIAAAA0lBMVEX///9Sf//r6+z6+vo+Pj5BQUH39/cvLy82Njbu7u5Vgf/8/PzU1NTz8/OTk5N4eHg5OTnk5OQpKSmAgIAxMTHIyMhqamrc3Nw/Pz8lJSVLS0tZWVmurq5FRUWRkZGbm5utra24uLjCwsJVVVVhYWF+fn6kpKSIiIggHx5nZ2c6OTRVhP9UeuZXf/M9PDhBRE5DRUxPardGVH9KYaNFUHBDSFlIWpFScMk9OStMYp9Ved9GTWVTdNM1MihOa7tNZ689OSZIVn5DSV9GQzoYGBgFBQbzhyt7AAAZf0lEQVR4nO1dC3uiOBfuICFBQEIMICAiF8FLtZfpfdrpdHe+//+XvoDa2ptNEDsz+8y7++y2FiEvSc4tOScHB3/REDTFMAxpBdUwlNavblFjaKmWq9tJPx8UXWeFbjGIhomtu5b6hxNVXDvOCzMACBJv/HPsrTAejz0IKQicIo8T1/jV7awJN46KiY8p8YgHw8AZdTp5hWHeGXSdICQlWYjDSTfq68qvbq4gNDsaZSHrubGXmp2+7VqWpCpGawXFUCWLDd64Y6aQdScKA7MTq7+61fywiyBkfTemQZRITKZo712oMa6GHmV4TCAGwSj5E3pScwchpJTNsYHOL0WsnPU4olA29T22rQG01CQjhPYCsy+JfteIy3FNxmlu/bY9abh5yuZU0B269W4gxYMJgAQMbOH38xkw7I7PZpOZCwzO13DjkQ+J3I1/O46tpGAtC4vE2vVOqh0F5Zv6zTjahU9JGOmNCHzF6gdMg5rx72PvWIWPCO5YjbVIU2PfQ+HvIliVPEQUdRs2vbTchxSPfgMroKX7hIbdnaffaxhRiiDq/2LVoVkdCIFp7+fuLpvd0NxJNu8KJckgzcS1O//9TQr9/NdJVStic6Woqd45H8GmI+7+KoljOximyZ6dO812IE37+33IOxiWk2SvHbiEFCEqDz5/MmoFE+b55wi6xKfU2YO03gp3AlG2JxH6GpZJqf9pTyuh2Rml+9CB76IANPxEK06LUyp3PlcVD1Mof9KkOKhkTNh/NzSxH2hJRlHnk6JyuQzT+JMJMugOhcWnUMwR/TwZswnLgaj4BFO8w9T8L7Ix1Iyg/XsbrAcnn62anmBCuOdebOUYZr+O4EFrhPZLUYsBDPgMtT3pLmVESbRHcZP4kFPIDPM99bQ1Qijaz60Z7BQGfAT7kO7LHXAdiuI93VtKmeXEdWUSYn9v8lbPULgnbZUxZ4KvDQGWnf1ZWAmg2V68ti6zmrgutEwc4v3NlYODmDlTe4hs5DI1ufpFyxEIwV6Ngg5EncaFdSll+N6bHcoh8Jt+/nM4sNe0Zcx8UMw3vVVzenSMnGYf/xJuBrNmR4kSYcInZbQhPb44h3wztj4SAEeNyjIbEM6wveRPH+7Pyb401hpKRCnfK+eDmsGUUz5H5Pjy+7H37Gpr1LxcsEyIGlQZA4/XjFDg4mJ2cjzeZMRsPdC8/mJ3DRq7me5xe54ROfo++wrGGx/1MQL+HqzUCMOmxqkWwIBTcCnp9HT2jKEWh3ixF4bShDZ12yGUeV9WjMA9Y7h4Ypj4029ne2F4kMioaGR+WwGd8NpIXXx+2N5kaGXTo8uTRbgXE6dLmgkTdxDmlf1GtjidfZndh4+SpqDH9+0buTdsoiUvIVHUbcDh1wPIbaDo/tU9Y3jyqC10uriYt2fH8mD3hryByAMNdGKHetyTKO9d3bS/tG/PvZX/69Dzy3Z7djZ19hJcMXxo7jzDbR+OuC/uIDD78qV9+M90+R0Lgmv2wez7FafrLIoYwmTHWxgdKvO/pQE6mrUZo9NFWv0e0aPLkvL8aNr0Xo0lpAnkloLvQPcJ/+Jkq5g+MEJsIoZy9WqdxdmcMW7P7q/2s9ChxWjHTlQiKCDole6S4Zf5OTZbpRUOLqrfv7Bxy2s0iMFyiLOTTpR8IrKKVkzPK0aziys/KX3h3n05ar+025fH0/2s4uYI7vTqhkQWEccDdFwxbM8XeOIe9Hu9WyZay39mX3toso/wEfOFd/G2WykUUqkRvjpsV5148gOZar44Xv5acr5YoHBXufcWOojsIGvssSwk5ZnGP1lOPDZOYdENj+crhqwXr8ECjpofqXZKdojrOVBs8ijO9Gz+2GdTDJ4YMoon5zINo6azKzQT+bXjGSrEgvGWCIPvpQIsKV4fgU2GrF9vL46mEHdjt9Gd3H0sNtA2kXu+4MyRQvlhNfXa85Ozf+X5lw2055en51MIfTOKE123yhQoy9WTJO4zsI9qMTd8WtT4WoWMCsfmcw9cr8Zpe3bz/X725RnF9vz2/gFc3VEaBplZwpkEYQ9BQiDqpU6R2+Iku6RukN8NxdexWhk9Opm112Nz1n7OsCR5eHPycHY8vbq7mzLcsf+B46MjNqTlq+kUp2YsylEfg6FoO5eIUA3H1QL46Ptsk9NrtOfzm8uT++uH09PTryeXlzfzEoz56fmPq0XPEfWIEK3p6zu0TjBLl6e96/m6F9vvcGSYVSh/evxsNmPyaTGlhZiGK0g9Y0IP+BWNtjGy7BRPzw7fJPYx2rP51396vEvp65aSetK0H465n2NHG2kurgOujr7XpMhI3pwCJLTA2gIwqjNMOwhzP8Icoy4T9oZ2YFi6XYTg34dZ3V5kHvT1ERYRAa0RqePqSyYxuS8ucA/hwCyiqDAzMF2As9vafVhKovsjJLJrJyZ1FtXtdMw/uJktc9xbif+rq6PTy7rzcIXZ1ysksIfNRbSGUR9jj1+ilZ7g7f3pGcPp/eXhfDd+JcWHK8D/giVmfQtbCloEBQxaI1iczpYKoP0k/3dA+/Boym+pGAMivrAvdYkpIJ+K6dFte6nndmZX2Qmzyx7NuRuQEPF1AzcgQ4HYkU7BdV3p+TbmD1PeNcvSzKDCosaWPSGtG0zPbhpl2L4EkDs+56aesM5PkECctLyeHH+df9xuAYaHD9MJbwjFMj3RjIxWTjKhuasF6FvDnXgCKO8wUjokExSmxsAT3I1rE/lidy2xyfD2HHIbxkMSCkZHJNMT1DBKAXuXzcqai2nK+/QYI0F1YaVQRJSWkAIEdrHVXqF93+MOFCa+aGDYkqHwypztT88PZ40oxAqzy/MxrzGmCwtTFyJhhq1heNWktGnffIO8MSY3GwtuzNBJjQiGEcnTfy6bU/xM6fNGGUp1IdbYhIi52UsYOZ2ef53PPm48F2YXMuB8sjQS8PVKaMN6EbpWTNDxQ9WNTz35NDMFe3f2FWBOlcUkeSbW0qiW13xQ2k9kcXx2OXs5VkvHQ4wg+8bJMbfOH0BuzVKh1fFGNVd0WrmPF1fHF5fzlSe1jKHdfL8+OxGg2G4ffr84l7k3OXao2KZdZeTVT02xBpmMp1fH3y6uL28ZLu+vz48Wi6srMOcdp4zf1zJmgCjuWlx6OUJUqJGK6e2SQSkNR0GI7u6uflxNF//+uPrx77/h8fm3rzz8qjXj+cnxHZWz0cgnXhrz2GMRQkJNZAwHO60PGXo8HJhZ6vshCM/PHq7vv1/ecE3EclTfXCwoNoe6JCUF9tCAY8LU6MPdGFY3sVxd1ztMRR4yU4ff2GlfnmESxJZhqKohxRkhHE7Ap/fhE/rw2/yd2P47BL//MyWmu6pBqBq6CYn54VyswbChTGYtrxgKELw5mpKOtFFj0XUg+dB6+2RJswGjMxVi2L7pTXFuqNITDMv5OFEsooIMmbZoZr1dLe5OBRi2Z8d3cqRuEpQkRfc/jDhEVGyUMo1vNpNZZJl33EE4dtn89IqJTkN6jlZO0AeuQ0fUpom83bc1VrCyu3t+l3F2v6BMyLwgKKlqSrbvCtEGgjv3meXdUD6z608veRm2ZzffkK+/IsjGad/bvkRodOFErGFxLe/pDegYcEdv2vMLmSQHhvqKoSqFZLBNMEgm4d8GW8EW2ZO4DQk553b7Z5dHCz/RXbUq//kMhultHaaWI7ozyiW0kW3wSgS/HXISLINrGGOEcBDZxnOS6nB70MHNxkOxllk98UjUW1CzuwveUHj79mjB+FH2r+fRwpY2OKo6IdsaZKdEcAXRCkgjm3qlcHrPNUjLqMD3K7kYdJ3Mx4wlQaNkw7Jx5a3BtCTk9pXXLWvIqNHpMe+ehfb89C6ztJalJ3mRIYhgONDX3ai6vrdtsS1GvPGONYzCM5tIIGBWKa+gaR/+AwsmNdWy8Lc+NFlHwixW1BXDdGsQPie+oA0mvDLzDjJms/ERZAwXdLjuMkO1YodSGq5M1A8YGgPCl4a9gYTiBlS+SmUux75iePkD20/aXlWtYQgRjiqKHzBkykI4iVN0hfRtDEmVcMHH8P7uuT2jKvqEoKWjobrhtqCUnnrCmzEEV7nfQTY949aGs4u7TH/hVKhdSFGfUVR1uE1b2Fh8lVsV26nwNiQkX3AHwBlDx31pyhhdClM2dtWEbFlI0fo1diqI7TZ5BxE9uuVk2H6TIVP6JoWmpaq5t6V2k1GQGs5e3CO7iholY/49bxeWDINXfoWhDhCGuWKMxlvsUisl/DtTHmGn3nAHdiViIN/zr9K073+88pwUq2BqkYaukW6zQFwkvhZYWjWiHtdLGOb0SGB7RvvmCvWfjVKjZTuUOAPmOalkW6SmT2qVHxtQvJswjcMpv5wpNf43OJIeKaqK5hYhHE8swyR+Z1vKb8ust44Uhz93chHVEZKF4ojz6ykcVsqPwTDsLvZgtZc+Bszd2GJEKqheBQnmXtTOYygRywuRLqxWtRdkyOSmZLl2lBKPAKd6x+oEYbrFwU1IzYwqk6Y7DFPLEQuUfil9/H8wyfKom4VkTKjfXdfzjCjelpdufhCmehc53iFTuhXRnsh6YdWJs/sjTMpjaDzod4dPySWuDLfltiA6qNcVbshZGOot2GB6ym2wPXbiyTGa+IE5GCbPS/SPyBZJanth3dJpEzqpG/hWg+m5+Pahw4cFkCxLMl52ieRu6cJR/UKHfeHMrkc4dHEvtOJUdeH3Y09cKKo+qi0RNYpq1kIYQFBt42s/4svHOzGYLJ3WsIWHuFc/N7VLatWb0iK6OJ3P2rP5/HCJ+Xz28f7o2f2iRr3AlrOLyNchHop/S8nB4uzy8Pbk+uH8CJQ4+nZ6/f3mcD7b1o/tm/Ntav092D5nja632zqpUXfCiIC8eDg9XyyupoiWJyOx/0yvFkffri8PtyxDta+nQHy4aR0EdwmZxQSLPtQqgAzAYkopCrPRICrPIYsKx0eUTo/P7m/eW89v3x7XqRLsZoLbvV5AYpab2FMTB4PywK606OuuVZ3YVZ7MVR5BVgAyPf729R1DZ3Y2TWsYGDmCO8WTWjlEIrLGGoTMYYVBx2KuwYu/aYraD8gUnL3p9rcvr+oI7rLgwG7BFjcl/LXt2ABlk87vvL+LSUtSuuhdvx6p7dnZoo6PF9Nd11e0HBG+BzNvjhIUfnQii5L76OrhVRycaYo6BUEtNgvVg93cWJ2z7oQVIYLSguOF2iZdnN1u9mKZcvhtyllacxOaYN2Ot28SYe/jm0hxQGg64OttqUCLZ/mJjOH91oDve7B82N197cHNaPbBXNbsESZywZ1KzzTm8xwiZq8hsQ2wS3Tqur7PEWG03TlRo5SSzBbQKkrObILDR8u8Pb9ebF3/fAcWpo3s+jECutU70R0MqeCJRUqEpqePSqN9e05HNWS+CRs6uCT2thUAyQEVTofXDowuvbqerbvwYlqnUmeM6xfEeAH2rt4b7orpobDO2SGSgxarbSjt7wuBZMqnOwS0hvh9G5ZM3zbANaZL0KTeSLH9xbelCzk/uwvEnXRtgGBzReByiN96ya04oKioG0HIy7TTckXmZCHXWMhLfLiTyf0cxptzupX7sNYIXULJ0D9loazD8zplwCyHhk1W1tJ9+KryoRLJJEh2sJh0Ci7mX2bX0xqhMoW5hY2eTaANEXxp+Y/QrjW1u/D8dnZ4PDXFlVoCSMOn6qhd+NysUkaQOjsOEwtPr2cXixqFSSRfsPwJB9wMbeosawLRzhtuWhE9ujhC4gJDS+EeDoBIQpo9UrLMRk4edf3FQhZX9tqIyDUU6IfIKV2TKk966zbwCKODQnG7RMthI9V1X9+4IPJy045aQDpo5BG2j0NhuyQO93UgkzSBfr9VlimlDRE8kEZU2GuyU7q3I17coDJQC9qE37lEzl/IaN2IDDWz9fVN6CEN9SFsoDzxGnFPcHOZNUHbVtp2hu1TgLe7i2LQM7HVJimAMN/ruX2Jj1GTB8upJhEpsMpEgSxeTUgMsV9jcWELCiqQ6yJlEOzzTLIl7GYLyUYIcA86d0J6+yfYNIYy99KR7iD05xFk6pu3qL2dIdF6K78FbJ8vjqjFKdq6W/+3he3z6e8cUfQLjndtAG4Khx9fVYb06qwu/g6wOBi29IzgXd3tXwYr+JCh0fcprh3S++X4uA/dAkDQ/4RzgPeED/swnpTLPp/TmL3gA0ljjUJIO3/sCC2xXVv0fQT9Tzw1fh9I/Hf3CWh2RigQrAv9++Fdq03RCwRxto8DIz4XQ0DfEpOaHoWEZtGf3oEH5Rp67/U0U/Tch9CPftEZ7s2ieF3fSbMHAYV4oP+BjsRrtEYvM3OM2EwRgUXTJ338KlgO6T77vRNgSqjp/tkaYgN2+rSkpUnDjBCK085/QL48IgY/K1GqqNbQIR7Fvtn/T0y/R+RYPmhZbhIx65Og1Iz+ZAv0LRhMlMaR4yOPQL+b2/+l4bmE62CAPc/DkyLW/3v0Dsos8zGzzBg76z+iG15Bs/u6ZPy3RMtf/MVf/MVf/MVf/MVf/MVfbMLtRNHWepp7g5GzR1fodKLkvYhUKy5XFI1+7VUbJYIyf1H7RqFOKPQIA/OMCU3fKd+oDMraMpIp140aW6kchnKdfLKdoTqok6wQTRB5u7B4q1OeP6nWZ5jQMARhQ1VaxaA6m6VTh+HbVQiUHRkqDu5N/FCuX9ukPlTn2Yri8O2q1LsytFBPjk0sT35BdOgFQ7f35o7gXRl2qBxYsQzC9QgxdJ3dyorzKKr27Vj9KMrjRzmmuex39sFqR0h5YsAjVpndij5klwzt1vobui4dtHR2w+HzRr5gaGWrk5y08tpo/cwNhtZGlK6l8zFuhTIeGGraw+ujhO0gTbUkCzHGYdc6iCfsJzlcn02sFwHA5Z+yoqRjjNLgEf4yM0ofpeUlIF0le1tmmsZGkcrssyDfVEsvGU6Wi8RW4UMCCcqGyguGMXhK59EzPumYeACz3jNRb533Y4fYj2VCIAUAFTEgEFIZ4LR6o3qKZQwZsIzKdRZ1AikqgQEAsNptF/vsb+wKJGO52sRsZRjnXdZmiICMN3PXXjJcyjs38LJYMqwIw6pk0gbDlvd0UOKQ89gnh81AtypPtK5tYvuA9Wth252wx1okdxN3mOKwqo9pTRDATl/X84yRHpYH9zhOear4KAAhoOUlOpJl2YzdeARkMLarrpFDn2a5noxQKG8K7ecMtX5VHV5J4Wpf4ursqk1t0YVrWpZDuSSHG4JlXmwP4NWmddvvVd1abghleqTqBhcwYkpZ+xuv0r7UCXsLG60zZSBXOw0CBPzl/vPYBzhQlgzx8mSOAoVoY7n+mbZQ7F712Hz8mMhl+9R4Lmn0x7qQtlxwBV9zDPyKTReBVbkv1od4uSHbAiFe5guqrKsD40BLJuZ6835Xlp+WA40Cr96QTsB6e7YWhdWrYgzBasO4C0O6YbkwjZ+vpZQ9gKh6RWAj/3FQbn7fZNiarFqp5Ry1A8r35sjyMilFJyFatowxXOWkGj6Ql8XDjAKVDA8My1q9QssBTwyVPOzhZYZZeeF6HLqBjLsVw94qpUsth/KT/ckYyhgt8dPLqixx6+dGMdUEZC+0RewtT622JnxpBIkPeitVHwB5maLLGHr6I8NlBYs1w+pnS0/6uQk2GCZpbz2/MjYJ1/NDY2qWjW3GUF5Vwpf8HnrOcJSvMEzc6mXGm6eqSan8gqGVLk8YszmLfA7kEDjMsGemfQDA8rTkZwzxC4aaHY2cwGeils2tNUM9wPK6TjobmE/HhBZyjxkSjOH6UsmXXzBMtNYS67EbbVZKamWy9JyhElVlhJUO5hqkblbKEsCEnwyYaVoJk60MjQ5r4tgbY2eYgXWz1QnuPTaLidinqngDGbCxtI3h631gA7jBUMuw9cKm0atkSNXnq0Qbl3phNRFwj3WitZ2h1ocyCvql6aI9zkPNQYA+9ltpOjwq9RGb5aogw3zz5AMlk5UXDKURsko1PuQhqDIBKg/7K3RxSDvbGbIG4pUcaD0yLAjrzUdS5lK/Lu8/6cnmgSBD/efG6RW6H76yS2OSawcOXzaPzhg8WT6uL8s9bStDC4Xrk82NyWqU9iHAGynoMQSP54jHy++LMdQ2DxSJypMtXzB0s9AwvIJHzmhDFG7s+JRYJ5byYhtDGq4r4LLWV31Y2geb+7JVWcbOqikOs+ctUYYHo6carJJTtuSFB6x1PD2mXDEJy5HDzYNn+zgsVf32Udpj01Ax3GEgh0wtaHqGw7Abr6GWRRnYSI5VRUqYmVPNKUGG7uNWfaNDSz360se3w+6Er0yGzRhtngGmB0zYWO/qw8xgopoCOZx0zaxXmtq+Y5eGXej7YQXgu+WljKJvjkz2NmglnEt9+B7Dt45H6ZNgWM5rvcCVnb1m2FsxVExZ5sooVkZjOt7sbKPrUa/DiMP/LZ+rYkhWNk13XJ25YI2YU8GkLyGdAQI9L84JhRSuQKpcbbWDYelfYUqWW2KtgKxLyUkyGW9oain7+cam0lYf02BUmKG3dHeU4n9lJMp5PAY4x3zK0Ig60fMcXzuKBvmBG0WrfAAtijrLFrSSTqdy/pR4gglOB25p5sMwsdfhwCWWY8ftpJSgoFgaKWXMsBM/PnNgPw0bZTh4M7XCGvjeT5TFK/s2Lt/URjTRCsUOfPrzkO9SIPJPQMskf25KBhcS0GC1mt8Omu4mjujJ438UlDCQveiPTN3jRKsYDbjL4f2Z0LT3O/D/1DxrpcyJY5EAAAAASUVORK5CYII=;" parent="_Kxrb-t5wn4LIO3bqoOr-28" vertex="1">
          <mxGeometry x="30" y="20" width="95" height="95" as="geometry" />
        </mxCell>
        <mxCell id="_Kxrb-t5wn4LIO3bqoOr-12" value="" style="shape=image;verticalLabelPosition=bottom;labelBackgroundColor=default;verticalAlign=top;aspect=fixed;imageAspect=0;image=data:image/png,iVBORw0KGgoAAAANSUhEUgAAATgAAACiCAMAAADiKyHJAAAAvVBMVEX///9ChfQ9feN+fn53d3d8fHx4eHj+/v90dHQ/g/P0+P7z8/O9vb2Ojo6Hh4f39/fa5PgtduJQjPOUlJRblfTe3t6NjY3D1PXm5ubOzs5hk+c5euPs7OzIyMjo6Oi5ubllnPWTte2wsLCkpKRHguNVjeYxffPMzMympqa1yvOFqesud+GcnJzX19fl7PmrxPGiwPjQ3/tqamp7qPbJ2/vt8/2Rtvd+qfdrn/VRj/OhvO56oOkrefNwnOmwx/I5hyx2AAAOmUlEQVR4nO2ciX+bxhLHsdgFFC7LGCIiEA1qJSUGp7napOnr//9nvZlZjuXQbdduvL/Pe41Ay/VldmZ2Z2VNU1JSUlJSUlJSUlJSUlJSUlJSUlJSUlJSUlJSUlJSUlJSUlJSUlJSUlJSUlJSUnogmSb9Dz7gv/D/RrQtvqRPSj29OkIKXE/m68/fb47Q98/vyCyVUKb28XY9PU7r9e1HRa7Wl+l6enWcEN5rRU7ofnosNoFuff3Ud/wsZGrfjra3Ct0vT33Pz0NfTuR2NV2/fup7fgYyze8ncgNyN6+e+rafgT6canBocr+r+PDq6mRuQO7q61Pf9xPL1P443eDQ5P546SZ3WirSkpu+7JTE1P5cn8MNTO7zU9/7UwrGWud0VEHuy1Pf/VPq1empSEPuBackpvb7uQZ3MCV59NDxpLHp/pxUpCG3Mz4kaeF6bpEm591V6YD2crE3qwAu4CzFFjTP5qdcIcEjzrw7TUSGC8BdQXwYezw/Nyyu6zq3uHPWfeUWY94+cI4uLsBYjs0SaP+pPOUKSzziJNRdnR0ZKpMbjQ92xPRaVn7ObTlM58Hur82ivQArgJwNFFl4yhVsA+7tfIvTvl3EjWZJBoZhBhxtQfe4geTSM27rALgcuTHucVa9Glv/l8G9vszg0OTeDU6aWsDNK33fzgwAaPjVft/35WZmb1uWY7TgfLvfbG5hL01903fo1Sy74OC8+8MGfnsZuAtSkYbcICUxPexB4p5yI8hieu5l7uq6F6Q1hHkewXYhbQdRkM+XmZNBVGjAmZsCThdltnyFFXZM4dEcxtmnTALnp3RATu7LzuB0tDsW5wWVq8hz87l/EbhDqYioMRwwuX5KgvbAqpjQ2JTDDOHMdWEXmYW2AtuecNAQDbjODcPFqNBanO1SDIBuKXl+Hw8sxGc7Wjml3YKbe+IAg3yrjREgrs5veXhsgd9zg+X6BeC+Hhqkrv9egw7Bve+eFfyTbvXilWNRBDTwv3N6jmbbWBJHfHJGMPWgAedHaFuM4X/bM4b4Zrqeswa35NDUoAOQHCK2CHn9JiiqGPiSzgd3cJA6nf7xDvT7AbzrP7sml+Pjo6WFaQzapLa2ZOj1NmGGb9sVRsmjOMyQXIDZBH6f0vcyuIzR7hKijRQrSmhtdSNBDa5AbnkYI3BoIoFjZKR4KOe5s6VXdK7FXR+yJZFrXM/2k5uuP3ZOu8WnR5TOJ4uUEEsP3VTM6IGwiYdsN8I60Uh1/L40ZHDUJ+nhXC4ZMR20HANHXmID2z74Ob4agkOwHE8UXmBxB1MRrCuYJoBb7B9d9FKSxuJSkWxx3wQDqLweRAgj07zq+SiQwDfwPIbI9/DJGnDYJz0nAw8Pu9vOGVsDX1CBg3jOI9qR4k2YfXC4DZenHecGB3OYikx7saAqyFzPJpN6b79J1e6dTC7Dfonm43xijMC194+2xrd+67NWhAxwslgcbEjgkJBuoNBQmkwa+xvrDhMqcPDOwM5QyJzbfXCUg4hOjt7jPIszb/tmNF13Q4EEriZXNemT+y6nJHHtguZlGBs1uAoUPRqmAkzcNDgbABc03j7vg4MQImQV9QUSQ68NFFo65bKJqnljuUs41BiCa+NWcqbFjcyKTG/vr0EtTxmcIDe9wRb3nwcmJ6ckCdPr9y68vo8exxIWRZ1SskDsgxnZIXHBli24EnueUylruqoZ6ZUzgAM4ONGgBocJt+BbWl1Tz+kbv00Ay3MtbjgrUtWY3yzaRSISuAk1uaEm72d9clfyLAn6KeHC6MVzH/cIlGR7Gy2oLQPHmIAUTcvIfM0uOsEBXkHlsualPHrAWGKszAoIOskKHJko5co5r6ML3QkGJQCHyKt3isPCM8CZI5GhBjdZ3NyCvvfAoc1Nb2h13PvFonfs+ptkciElZau4jHMRHGgQZoDF+CuDnoyePMZ0VAQS08M0Qnd5Lx1xyR6Bv2exqPVqNqW4UVpuAjzeaLoqvgdeAOOYE08axHhxSWNbtEXinPmmTfnI6eDMsdJ9Y3F3b/HfV5MeuEkL7m7SI9ct7FM6i32IsiXwZj6BcQuP7lsYXr1tYbidC2S6UYMTg3zscEa0LfBbLo26cD+cyaJRAp6gzuMySggL5Mkx38HBGbQTo5RCuA64SKSfm8eNle4bcLO3aD6vJosW3Ax1N23BTXopCsQHKbDmYtxDt2sFdg2GHpN8UEhxkrZFz0kKA0HnjvBSGJldTYwwqB23OmE0NnhzfhpbVc7LLKzqOlyka5ZoZURVCp1WO/hZeZw5WrqXwWkIbjKrwd29/Qv0YyGB69lcb8ha4pgThj4WL8oKjMUgrbC4yKK0ZQDb3GgnOn07LGHQuRXebwsURRLNoRm0i3pzRssVExfwKOgsIdemQamZcQvOCzFYQIl1CxuVmIzTCXEHfB2VcIVPJ01Eob6OZbQDcIsG3IyK9u9mEwlcn1yvsJ/ETuZswtanL9N8m8ft9tzJt1nj8zec5i4wfUHbshOQABrn260z8oR2mcIFluJt+dhenMuOs22eNgMLv0zT0IT3AhI7wjRL4XztEUdrR4FmH7h7PArA/SqBmyw6J7lkLYkNPYx5xSpC3+Q+3/UB5s3YEOoAOG0ArksOuvHZN+QHVu3zDO+C+ezH1v3o6P50cJ0IcdkizU3EcD6A6bl9uPGTaXxa5Axwsp+b/v1xx+WOEwaHMHm+3RT1cOAkcpeC+y9ofOb3LHAtuen6fsflfhqZ2i8PBw4HFOLw7/KPlfxlGC5PjPYPoMf+vdRoVfDkdKRjc50MOFzp6Or14uQMc0Rm4LrRzgUB28h1Xa++juO5QsEqpSjjwNfectfBJ9/KqMkdkwCPgRPk5DKhU4+4uHXeCoiuvGb+eCifxlesGo80IypIbSyO81A46L2kYN/V+Jq4PeDu3n4A/bgbB4f5nDwLTENwTtO29TTcRYoGRa1WYriv1+tM4hocjeFTMX3PHi7DMbXPwwLXHnCTOxzkLyY7wAG56W3bUV2cCik2Kc0ZeZc7OncPOJz+4G3Ri8B5IDEJ4BM44yFTw5F1v/vA1doBbrKQKl00KbbFTziwb1d0mMl8LnUau4zjZevL/TCOpZGtuSw3ZdW6Agfj1wEBvJYupt9JBC4xfT/B2VQY9T40uLHhagNu8usblDQ7chDc3Y/W4KgkQD5pGYeJb2p2FEVemHo4f+ZWXXdZcIsxFlWbfo51Z0vPKnTQGDaNIKzBxckKWuhFz11tsJSAdZdqJp3AEaelWE/w4BY3smykBTdZoEbBUZMhuIk0NUKzlPrGbkia0Jm4x3g7fabFYqveTLxq2RZzEYCYVaOvYwGOF2Km09C7EAKKG15TwmjB2fxxwI3MAU9v71EIrtIIOGryY9HDNvsgz4zg/LjOeLSt1mOKVTg6dFuar96I2pxh0Cot3MS6K36mUoImVnFxQ6eVDwmBQ/RGJ36SsC7EEqkq2IIrRW364S0O4sOgyje7A8k8BuAm2OKuz23xppN3JvU8uMWKeQ2O63EyzwwRAal4Y/u0SsujkgT35r5f6lS9owUTReKHHiQVKwEObDHD+n931RzWLqK6iNqAK+dhmFaT9g8PDoAMwF31iIyAG9WsN0qtlwyh3ZQ1OCpnIjm2tOsVEBgUISBihyNvBi4L3LxTLwUojSIrBThasYpHdxa4QvzGwjytB0gbcFSGxRdXaI8BDn+JNEhJuuRm9Dvog+DkyFCdu9x6BhNlBp+eqwp7CdUGsKapuxAyXPzGIaeIm5GoDKA9iubC47t1TQ+LfHJ6M0cqaRiGRb0oR87jDFyt8hgWNzaBPu2QO9LiZmMTcWYSbyuXRgYhwqf4GIsSTBUfcpuJXF/s8KgoKI8U3LpM2wdHq1RwHo/r1dIAsWiCCv/GCnk9BrjxGXSZ3N3b16APfZfW5/a+Z3Cmb4tlBvigYGpms8ZGVIhLqhtbtQoC12wyPxgBl46Aq4JOJTqEwOW4TCcWgelRLG6sSNj1czRgGOYePfV+fpl5EBboXnGNiLGlB6xWJmDnYvMSq6bLOWgJSqirzuvNeVv3b7vqKLiwWZNDxcbIrMDJY5XHATc+S3LAwAYG96FncFS239Z3DfkDWQYZhI/5vO5Tvi8mL4o4MSk4UB42D5y5SbGSlsWFlrtyzJ3gyBXQupIUP+KynjYdeVRwYwshrqbTk8gtfutPgdm0LCHKMxqrQtAUXYoFTo4FfZZTMAWT823HgB5bahtKIiAdgcwOMuKEal2hDZu6Eey0OHkpcL2A6V8Ct2MS/SRys+EvRGgFhC6iKqYEVR7HKf+llQmEhlHSywNTM3FaQCTAZGq0kIHRCXD0HsnJRguulJcCu2IZaFwbqwzuAWdHao2mJCfZ3OJ/I9XUrJ2PC3wBjuecYdy0XHqsshpy6SzCp2qGXIZYXb616hEZgoE8WASLjcV568EKA/bXc5Q5nB3H9NCCyeAc2PFw83GSRn8DdwK50VREC1ceJaEBJSEIzgptp3DdVVxhXq5oxaBXjerFIJ/p2+oZYxdzCk4zyGYQBK4AF8GnGpztwv6g3ipxK9dS+CeSJ3wd2OFe8JOtXdpV1D+WHKQi4/JxDql6KgGu3wLLgVJVwp+XpTStpCVhOX/OJdYdP64ZjL526ZjKFuVxJ/207z+gkTXUJ2Qlg1Rk/BoQGR5iCv15CVOSc8kNU5FR2V4UeZvHfpB/X7v+esZhPzceGYYSfy3y59OOv9dy0M8NBqkvTa9GV30dEVtf+N8IMrV/dsSH/eRmf71wgxtfSn04Qvz6cv/oSKOdvzDf4+dm/7x4g9P2/JBwJ7kjU5GfXdd7fvI7Tq5foHmZMrX3u8mNRoi7H099z89EX3ekJDvILRY//fLLY3V9tfOH5kM/t1iojtro/tt699/sXnRLOG+uVUSV9OXP2536TdIP9SeAlZSUlJSUlJSUlJSUlJSUlJSUlJSUlJSUlJSUlJSUlJSUlJSUlJSUlJSUlJSUlJSUlJSUlJQu1/8B7NBB3KudwOQAAAAASUVORK5CYII=;" parent="_Kxrb-t5wn4LIO3bqoOr-28" vertex="1">
          <mxGeometry x="135" y="20" width="162" height="84.12" as="geometry" />
        </mxCell>
        <mxCell id="_Kxrb-t5wn4LIO3bqoOr-21" value="STT/TTS AI" style="text;html=1;align=center;verticalAlign=middle;whiteSpace=wrap;rounded=0;" parent="_Kxrb-t5wn4LIO3bqoOr-28" vertex="1">
          <mxGeometry x="130" y="140" width="60" height="30" as="geometry" />
        </mxCell>
        <mxCell id="_Kxrb-t5wn4LIO3bqoOr-31" style="edgeStyle=orthogonalEdgeStyle;rounded=0;orthogonalLoop=1;jettySize=auto;html=1;exitX=0.25;exitY=1;exitDx=0;exitDy=0;entryX=1;entryY=0.5;entryDx=0;entryDy=0;" parent="1" source="_Kxrb-t5wn4LIO3bqoOr-13" target="_Kxrb-t5wn4LIO3bqoOr-6" edge="1">
          <mxGeometry relative="1" as="geometry" />
        </mxCell>
        <mxCell id="_Kxrb-t5wn4LIO3bqoOr-32" value="8. receives&lt;div&gt;responde&lt;/div&gt;" style="edgeLabel;html=1;align=center;verticalAlign=middle;resizable=0;points=[];" parent="_Kxrb-t5wn4LIO3bqoOr-31" vertex="1" connectable="0">
          <mxGeometry x="0.3955" relative="1" as="geometry">
            <mxPoint as="offset" />
          </mxGeometry>
        </mxCell>
        <mxCell id="_Kxrb-t5wn4LIO3bqoOr-34" value="audio" style="edgeLabel;html=1;align=center;verticalAlign=middle;resizable=0;points=[];" parent="_Kxrb-t5wn4LIO3bqoOr-31" vertex="1" connectable="0">
          <mxGeometry x="-0.7719" y="3" relative="1" as="geometry">
            <mxPoint as="offset" />
          </mxGeometry>
        </mxCell>
        <mxCell id="_Kxrb-t5wn4LIO3bqoOr-38" value="" style="edgeStyle=orthogonalEdgeStyle;rounded=0;orthogonalLoop=1;jettySize=auto;html=1;entryX=0.9;entryY=0.5;entryDx=0;entryDy=0;entryPerimeter=0;" parent="1" target="_Kxrb-t5wn4LIO3bqoOr-1" edge="1">
          <mxGeometry relative="1" as="geometry">
            <mxPoint x="70" y="280.5999999999999" as="sourcePoint" />
            <mxPoint x="-74" y="280.53" as="targetPoint" />
          </mxGeometry>
        </mxCell>
        <mxCell id="_Kxrb-t5wn4LIO3bqoOr-1" value="" style="shape=actor;whiteSpace=wrap;html=1;" parent="1" vertex="1">
          <mxGeometry x="-90" y="250.53" width="40" height="60" as="geometry" />
        </mxCell>
        <mxCell id="BvrUmkD39LYZDGTLJOgk-1" style="edgeStyle=orthogonalEdgeStyle;rounded=0;orthogonalLoop=1;jettySize=auto;html=1;exitX=0.25;exitY=1;exitDx=0;exitDy=0;" edge="1" parent="1" source="_Kxrb-t5wn4LIO3bqoOr-18" target="BvrUmkD39LYZDGTLJOgk-12">
          <mxGeometry relative="1" as="geometry">
            <mxPoint x="580" y="741" as="sourcePoint" />
          </mxGeometry>
        </mxCell>
        <mxCell id="BvrUmkD39LYZDGTLJOgk-2" value="4. sends&lt;div&gt;response&lt;/div&gt;" style="edgeLabel;html=1;align=center;verticalAlign=middle;resizable=0;points=[];" vertex="1" connectable="0" parent="BvrUmkD39LYZDGTLJOgk-1">
          <mxGeometry x="-0.2318" relative="1" as="geometry">
            <mxPoint as="offset" />
          </mxGeometry>
        </mxCell>
        <mxCell id="BvrUmkD39LYZDGTLJOgk-4" value="" style="edgeStyle=orthogonalEdgeStyle;rounded=0;orthogonalLoop=1;jettySize=auto;html=1;entryX=0;entryY=0.5;entryDx=0;entryDy=0;" edge="1" parent="1" source="BvrUmkD39LYZDGTLJOgk-15" target="BvrUmkD39LYZDGTLJOgk-16">
          <mxGeometry relative="1" as="geometry">
            <mxPoint x="110" y="550" as="targetPoint" />
          </mxGeometry>
        </mxCell>
        <mxCell id="BvrUmkD39LYZDGTLJOgk-5" value="1. message" style="edgeLabel;html=1;align=center;verticalAlign=middle;resizable=0;points=[];" vertex="1" connectable="0" parent="BvrUmkD39LYZDGTLJOgk-4">
          <mxGeometry x="-0.2615" y="2" relative="1" as="geometry">
            <mxPoint x="5" y="2" as="offset" />
          </mxGeometry>
        </mxCell>
        <mxCell id="BvrUmkD39LYZDGTLJOgk-6" style="edgeStyle=orthogonalEdgeStyle;rounded=0;orthogonalLoop=1;jettySize=auto;html=1;entryX=0.327;entryY=0;entryDx=0;entryDy=0;entryPerimeter=0;" edge="1" parent="1" source="BvrUmkD39LYZDGTLJOgk-16" target="BvrUmkD39LYZDGTLJOgk-12">
          <mxGeometry relative="1" as="geometry">
            <mxPoint x="208.88999999999987" y="633.5" as="sourcePoint" />
          </mxGeometry>
        </mxCell>
        <mxCell id="BvrUmkD39LYZDGTLJOgk-7" value="2. send&amp;nbsp;&lt;div&gt;message&lt;/div&gt;" style="edgeLabel;html=1;align=center;verticalAlign=middle;resizable=0;points=[];" vertex="1" connectable="0" parent="BvrUmkD39LYZDGTLJOgk-6">
          <mxGeometry x="0.382" y="1" relative="1" as="geometry">
            <mxPoint x="-43" y="-21" as="offset" />
          </mxGeometry>
        </mxCell>
        <mxCell id="BvrUmkD39LYZDGTLJOgk-8" style="edgeStyle=orthogonalEdgeStyle;rounded=0;orthogonalLoop=1;jettySize=auto;html=1;entryX=0.5;entryY=1;entryDx=0;entryDy=0;" edge="1" parent="1" source="BvrUmkD39LYZDGTLJOgk-12" target="BvrUmkD39LYZDGTLJOgk-15">
          <mxGeometry relative="1" as="geometry">
            <mxPoint x="118.5" y="734" as="targetPoint" />
          </mxGeometry>
        </mxCell>
        <mxCell id="BvrUmkD39LYZDGTLJOgk-9" value="5. sends&lt;div&gt;response&lt;/div&gt;" style="edgeLabel;html=1;align=center;verticalAlign=middle;resizable=0;points=[];" vertex="1" connectable="0" parent="BvrUmkD39LYZDGTLJOgk-8">
          <mxGeometry x="-0.259" y="-1" relative="1" as="geometry">
            <mxPoint x="-14" as="offset" />
          </mxGeometry>
        </mxCell>
        <mxCell id="BvrUmkD39LYZDGTLJOgk-12" value="whatsapp server" style="shape=image;verticalLabelPosition=bottom;labelBackgroundColor=default;verticalAlign=top;aspect=fixed;imageAspect=0;image=data:image/png,iVBORw0KGgoAAAANSUhEUgAAASsAAACpCAMAAABEdevhAAABgFBMVEX///9q1+T///0AAAD//v9o2ORq2OJq1+Zl1+H///z8///p9fbp9fRh1d9r2ueb4epf1OTj9vmb4eth0+T206H30aNt3O2M3OXy/P3o9fpt3uqD1+Bf1dyvqanm5ubB6u308vJn0dyAgIBn3+fIxMTW0tLP8vFy1OF9d3W86e9BkZO4s7OhnJyak5NwZmZ3bW3u7elOU1U3TVMoXGg9g4hRmqNbrrhfxdNetsZWo7FChZYzbXgxWl0aTVFVtrwgQEYiQD47P0E+eX5ny85bU1ktNDVdvcYnKyRCRkBYbWlLWFghS1VWpqpeYF3Cu71IP0MrcnFTs7AZLDpaSEsXODobVk4yWFI+g38uP0ktNEIaKCs4V1xbm58VVlgWGx0oNz4RRUceAAAuTUmfi21US0C6pId8alQ5NyrSr5XgwqK6lnUteITJrYJ1Vkj/26/syqYODx9UVEeR5NoXLSyYg2s7MjKD4d2p6N8qEwBeRzT/5ax0a1MIGhphVj2VgHKkmYDLXUWVAAAVF0lEQVR4nO1di1/bRraWhDQjC0uWsZGdsfyQnxhjCAQbKOTh8GhacJK7TbfZ2ybNXch281i4t83Cbfd291+/MyMbrKdtIkM26PsZhaCHZz6dc+bMOUcjhgkRIkSIECFChAgRIkSIECFChAgRIkSIECFChAgRIsS/N7jrbsAnikKlvNBcJFhqLiyUy7f5627RpwiusrC0vHJntdVeS0BoYKy3N77Y3FpZXKhcd9s+KVSay3dX7xkIIQEhgCEQAID/gGrrq/e7jVC+KCpzD75bR0gpAQAhZHs/5B+WhSwQFQ2Bjf2l3HW38/rR6DxcQxolhgWEG/KrwNqglLY3dwbZkq6twdeGxu4GixRFA4JJFNE+/C9WwD5LgoJB2ELGizl6TuHx48bNE7Jcp1XSAOZBQUAwubJIk6AguNa+194DJQAB0tpf5pjGozutdmt1N3vdjb8KVIqdr75ebt5mmIV9o4SJ0hQWj3oIK6ICiIU6BywdbHWbjfLjZvf7A2zzNa1290mrhBR8jtZ6VLjunkwahZ2n2wrWur07xcWWAoCG/uPO13NzzaXu9/OsAonN6qN070G2P/zx2efbmEtFe9gqsYooYClb+/Izd1Jzf1jDfgGEQFF29zQBagedbKG3r7yziqDY5wpqW03yVw6D/Mt/08YUw9LmDxqmGAolsLdzXb24EuSeYctDiBDg7poGNeVbYnYwF5wk4ZGtfL92brG0+xVzD0dkiwx7O3saJgv9sb2+V8LmHpS+K19zdyaKDrHeUBMAerCnQA08yGEWOE5iJC6Ct8zt50KPq9LTCt7B4D8zPN5KZPunEna8APrPqanvAfkNLl93fyaIxjz2N9F6q116uFGCQFvJYYFiqI6ZGya3pZkaeK9J/8/1dhLGmMfzCpZIUJuamvoBYTcMvShca3cmimUsVcoG7urUJu4rmm84D2m2FeKyo/v9P/ADbudzTcSOl9LCgoWwG4ZWP+OZ4its1jVC1csa7qr2yOUQ/lssO1DbI2KVqxTwVrrgqrknYp9VQD9OrSI8XVR+eHxFDb965J4ioBANmmpjTVPaxK5XsjYXfAnbfagRieniA61klFuIOBVa+xdExgDtM5YrwhVAX05NPdewI4Xe3Wb4DuZjwXJQdh0roXaXZxYIqVMWJm8/RNSdB7sa5Wr/Spt/tXiFuVL2Xk4daCwQS3cZpkj5sEhHuYUn0tpXDPOS7msO7ivcMS2/stoG5EpLV9v8K8WigX1QRXuJROw7oGcMQ+mYKg4ekyNcoa/MfZWiZV9h0+SKrW1hN630rHClrb9a5F7g4a90D2sSwBb6vslHrtkdPKZCubrDM8t4X2HBoqCVVWRyhVawcD37fK0VwcJ3SEFbazTyiZ7yTIdyZQkZNA6wy6DNl5kKlTnr6es9udJW2xu7uSvNWuCJRTQej0elS0fOeKbnLjKj5Vuyr9bQc8TiAV9A8xWTj5eWI5ZkzKMOsKxVOlNLBcu+R/0ohLL3X42e/3oFkKbzsYysyqKgyros65n6rfEJk9LpeLWar1ar8XR6tFNyi39+iHCPsfBsz2E+urtFayj9jxqJ+KFNl2je41YJ9snqkjniVXCVrqZkQyaDL9QgHlDwzJ0VZSMVl0b9dk5KV+sZw0jIaiKhqrKqGnqqGmX44TmE7IYCaOwT7Rece5vrJC+hQL3D2APFhQcaK/bipWj/CnjiIkw1I8siIJNYgSYDsO+nCOT/CdnID1UliUh+dUaWZVUgJ/fVArCCrNbqw7laEhWBnqlsLzp2Vu5oUEFr64p2r2vjKvdLDWKnvSdX2A2deGonXa+pJEYErCHIPuRa1f98TFQ8JgsqdDmZhAcSsegQtlcQoLkagUXzTdu+3H2k1Z4SI/ane/eeFAZ3NR7UlIvvUe5NOobMReo6zbsJPVFwAEA5E/W7hJQ3ZKwjxKa4ksVCPeZvul4QgwRJ8gFPfq1kNfZZbX2qh43afvHcaDWetLTBrxSMuYnmcjgmbqiA5JOoDkA3rkhf9bx3K/K6KJJUiz2LYLkC1mRv0ao8JFyxNF0D0UHnIl5X2fmixGoP+lx9qaG9p18vNReaxZ2tVgkJlvaiicauOCkjsh6qY+2rHPO4RBWonvI0CPnU+5bjOcxA9q9UWl2Za5Rz5ezcyirQENqbOse2AjWkr6+vGwj1c6sXXE1yLhipGlAQ3GyUkyw24yIXXDqlO7JS7hCgHPdqR/aeMmAp8UCMjHZrvtXWkcYqxsrhUZ+q13/ZFGgmWqHBVGht+0TjfHWZDFUjcUX6YLM5Es/EdaFGcnijiCbLYkV2R3Pbfj6e2WmIGnvw02zy+PAn7J4+Okwmj/963xCoQNGBCBuOgZMmGY/5OQFdBz53QJixjsgSk0+YQjUaVVgPPcia24ZQcOTgzf4/fJOkmD3GP7PJ5JsVzfRKnCcorcnE+SRGyuB7I4zaTUKIMGO9Rkxmvcc+tysIHmQVdcGrGegoOZs0WaI/yeRb4reaKXvbSUrbJQAdCFmZBCQ58DG4AnL93GZhQ51K+I99bpdwV8PFEvBohjDAVdLk6uQdqXQwubKepezZfbOAqDpNjMzSRV/l6QuuUjIYkyoCVwPfRW4qRbmC3x/PUhV8//490cLkb29bmtfF14ouFw+CqrG7SU0W16cqpo6ngP0rGC5e6bLmaTZh+2/J45PDo+JyceHow8lx8s0DxfMmKxMJisZ0rIDu1tSvp6ya70256qqpgKPrcA9qLOJwPghXXtcptfenitg5XcT+euW//+doq+Zp21j0zQSoqsteBmIIxJp5gaouXkYDCYy4g6yup1axpGaGuuOdHL5LX5cGJ4AOoAlUM8Rlb5mCoizrnq0R5Dq5QFQmLqHXMYIoOqvwLnZnHFGepZIf6VqXzMU6BUxxR/NwLUygr0aeD6anMaJR7605A+Y5w93/FARVNlJ1jBSeDLtrBQTkEhkRUBfUsReqgpyJYWRk2X1uyQLdEbbAPoMfV8uUKxLy7CJfrpSvR+WqqquqKut4Kw9u8Z9620RvTvez6xwQiELiLN77LikaS7i2CpKexgR3+yrKmXw0jW8GFhwpfpbw6BKwt3zO4bdbuHpBLtgpMMxQrn4ZVaoMSgAQ+1vhfMvSraCbQ1A14eolq0ZVOg+U8yTSYrvb2KNJYDLIzMYs17QCe5ox6hDwfK84QzpTXbvk8Bvm1vyskHKwwDC3p0jwoTOUq9HkqqZeIEE/9t/zJgsiqQtzGCz5LH0R2OfJh4vW+i0jOXJVBvV4lJCZSbhxpcaiEUuDeCLqrl2LWQ9ksnu+QzK6m80+q73KVhZb/lyhZ6NxJcWnb926RX/Ipgf6e9zELbOFdd3FWFHVkiIciY1ffB1/2otli7oRi0eJ2cA786rgtERCL3hqayueSLn0qWYz7tkD/wEVHWxomtZ6t4YEX660+8yI4CIcF6E/ZGP7HX9Mzyiiuxh2cZuoJ8fZM0ZpMlETjFR+mmqVRA6QiK7b+wZP02YOwn5fJbfhUrcpYWMIV6wCdQhIxMo/KIJeBRsXrbPQadhBmlhjWl0oDcb3uelMJl+l38+ZTHJMXncWUrMZiaFcObKKfFR39k6sWw+qtIa6xWSaDxTo1vgBru4GyRVHRgD71wk+IUvLyWQj6WQUtXGlSybHbgnYvIv3kbIeUnnnZ9tHB+bKp/XcgI45P5GLT0+5InkyNFnbLgjTY2Qg8eho7zuU00QeqQI6kk48k3GqYcZ6TOEhCoQrzY+r+kzMAzO2z0xvynpKdN6KBEkbcK4y4YKaYDdXNCpFRgV8Bbe8qd33wPqkpy03h38VEFdbfhkUHXtQIgXb+4XMMFxgmBe5pdt9KwBq4xQBxFXHNFDMELH00EAMjjh4FkDZlkP7Phgd1O74tDthVgH0Hhcjwa8BIuAA1J6FqAtmbmmAK7nKDZDFRdJRH0yfyYJ9EFTJqEakyksyYw6uVNs0ZyUgufLmKpXBOM1cIJXCnwvMzKRmYvQzM9PzEzP0IYRBrgRiOwachZh87r+6fQSnb5Uhl+Ylb67y9igKTNi4WvYLNIzB1QtPrsZH2qBUWbiyRnWrqn+kxZnHxzIyRIWnDdtFoGoLJc9dLkLk4GozwHqGvAxY1ub7WuOUpwlfrpyRUKAPr+OR7VwJeespi8anx1VdJhEGC1c1y9BRlaEwlCvLAWJqKFVczXoRgbVz1QyKq0JwXMVo4c4gV2LMMnydii4Py/rC3u0RuML3y3bSwnogA+EluEo7QemQGGCXKprevBDcqmofsoYicWu4w+G4qGCz7QvtgLi6PSZVeRriI0WM5x9zssrjaS9rS6vJVew/npOVGt/GEp99CFtpW0waANHGVSMYrlyrJH3ASwlSoEeqes8/YsL0k9OqI8onpwfkKm6MnrLvw+CG1jjGZbvjfpFnNFE5CISr0rg6+PNAnM+EoCZMPznqLL0jsdJzsUiNrYG43xw/TAnrjsvKg4NvrpEttoLh6otvlpfGqGmQqnkXmKmTqOzGFdfPQaUN/0HQHcPrpFOifbgYmDtnH/3l9fvDLwLhCrTeHCf/9dNHVjVwfa7suXAxfuG0x4Qxx0ACWRpmr9Kyg6vzmEyh8/r4OJn862owtr31dnZ2NvkhiFS9i1wRr7sfrzEu0z552p8qnsmLDq5i/VT/bpKWK7wPiKuN14Sr5IcAaoumnfYqcVHbmDYu0z7vaj0TpMzSngjB03WTrIX3x7QC5n0w9krZO6RVNccfXzhKfAb7OAjP/XaOqcl2JLShSinO+H9phKQybEZQlnpcLZ0cklK048ONgLj6QEpq/n748UooMTXBUbsjRPsqZD6IY0VmKFeC4TsflNI1ZyYj1df72y8PsRwcf5gKxr9S1qY+kArA3Y+miiG5dWcipO7d00h9hDIYoeosfDkHx8VYR+WDnD8feudOksnXu5VsMFyxtWb5p8P3AYgV0587WwCFtKcvGVVrI/imNW+usGFX3SIT51wVOovLeIhf2AuIqx2GKTeDqYTMO7liEymvo6XRvPjEmZcSSpgqxeGw4em6/YSiEQRT+MZ3g3vOK55w6iB01q2Y4E7hxVIuftA9o31VoaQ4bo4R5ezzooDiV2b5UUBscW5JZ4CHfUf0V2LSKdlplV3deijHI87vwpc8UyFw3psZhrOnxgKKi7JaJ8CnLWNuSW4BC4aDrPipyxCYqJ65DoxENG3dl5hoyun6Yqhp5xOJnWDMFav9GCBX+YTryCbbn/GT6rpbNhxwcXs82ESibi+ZjdRVkTwLYodalyIOKVwJiCu0RVY3CogrZtu1VBvqIJ/uS0aES9cN1eUwkYiP+8goqHo+zfVbyTHpPFBdS1ogiEScvdkKJudFuAoQdfdiO0FMGKf5ajyejlfzMd2NKTqA8WQodQW+QCxPywKleD4m68A9GK3HOeed518FJleF4Kjipj0qnslfVUHWdZ0kS7FIuFjxbYlnuLTPyIgnRTUADJIEh4qrWMlnDM87uCo8DMpeBckVtu5+Qw7oLXYquDygCulwyTN198JGAgFAAXqXn2OkJJqhtrWpElDtB5WrAB8QT+u+pXHekM0nS3nJnpUZAyDtVs/GVIIJyWCunhaCXKEhUncdyYdCjVGpkvhI3N2ajQB5mpp/R4C+fBBMjp5Fm4WhmZIxwDPDYwcuUFO0HI0nbmTMw7wPA7br7uN5NkCuAl3MgpT2jd2IhC7xdGJCWhLJ+NokD2B753XLg+MK62CwiHs/Q+IBVecjHE/9vEgEe0+nl+iHXPU0Jdm9yzzY44LgufIqO/cCTGTSZIVKWltLyymnjXGffRJqRAG9uNoOiqtgx0GKvDxOV4XTiFmj3PtgxGtjZV2hXEvTRVTdm1MMTK7uBjoOEkhM1Ri9ATr2HxmzPJfrT0256VGigBeXiNHonlc35tYCijOQ+WCgTFHEgT1x7g4AAKl4cK5oJWVG9NMAwPpHlufhr4CrleCZwkhnRtJDOUMCCK5R5thIjhoU5RSNQfiUPcytfTRLJjBX/ERWlKm7PNFgQ8KgMVP3MEekqntPd86hZqZ7yucdLGmuBWSv2O6opedjgkvPJKBPI6EO6kzEWxq4iFTf9jfxCTkVZyJkhRBfBOYz1Ca4YmaU1PF5dFeu5SNDo4yRs4Tq+owMKVcWjFS094yPv8nNtoPhSpjQAg09pM9YlxmLINdm6OJxwxeg4/I13WWY0OVahhQ6SpL51JM/V8H47QAcTHp1w3gsY5DV40QRCuQpYKOWqZN6LTJujbRYn1RNZQxVNR9IEEV8DSMTq3JE+cju4VxVWsGMg6V3OSbIubM7SDQ0NjMTi9XzcXN4Z/qzvxGAZ9TpeD6GGatlYvV6lZSDSPbn63yQCyh+hfYnz5QTkkQZY3zS78PAuQSLPcDfDYar0qPreIMcfQyV9/YeR7nEGOcG9DzO9kTWk/nEsBiIvZrU+lefFppB1H5AMnP+/FGeD0IJwef8DpNzcEEYd2XjRrzPi+kG4LijbwMPXn2SaLTQ5TJxF9CNpatbkvxa8bz0sVyhp2TFzJvwXtDiRz8VR+ofbwJTDFPY/0jrjjaJWN2M14AWP64UGdKF3ycT6Pv0sOuyTtToVKE/FJibw1VlC11+poM2yzfEWJloznsvMzqMqvnmDTFVfcwdaJfjCh0s3SipIpi7lEcKUet/F0Z5W8rnBL7766amOBbbGAJBe/fht8Pu8Mt/Tqj8/U3y7f3tIWvy2VHa/vHt8ezx6xtFVuMoOTs7e/LrF2D0pA7QSqu/ntCF3V9PNN31aaHxj97C/293DzTyIuIRqNK01v/97bj32oDfb8z76HO//pacJYKVPD7+59Q8QMowRSyVjNXdBtP4nTwxPfs+eXJjtLD4JvnP90SwZt8cFcvl7tYBi5yrMFJAASoIGRt3F+l7dMq/E8k6enPs9lrazxKd4zdHhKrjw+UC+X8h291f3dNLSOmtkUtpI/9BSKu1Vx8sNvheuGrhAz7v5OjmcFU8OTrB4vHbP8z3XRNwlebOn7dWW3trNYRRKpXA2l574+GLlcWF/stdaElm8RCr4e//ujHGPffTP8gD9UcNpl8+aBJWqDQWinM7T54sLz/ZWSoWs+WeCafvWOfN9H/xAzbtNyE32EOhg72rznk9gn8wmDuvPTVLJcrd5bLf8Z8bCsVuw3zd/HW35N8EPgW4IUKECBEiRIgQIUKECBEiRIgQIUKECBEiRIgQIULcUPw/k+8WijA40AUAAAAASUVORK5CYII=;imageBackground=none;" vertex="1" parent="1">
          <mxGeometry x="280" y="696" width="159.23" height="90" as="geometry" />
        </mxCell>
        <mxCell id="BvrUmkD39LYZDGTLJOgk-15" value="" style="shape=actor;whiteSpace=wrap;html=1;" vertex="1" parent="1">
          <mxGeometry x="-100" y="410" width="40" height="60" as="geometry" />
        </mxCell>
        <mxCell id="BvrUmkD39LYZDGTLJOgk-16" value="" style="shape=image;verticalLabelPosition=bottom;labelBackgroundColor=default;verticalAlign=top;aspect=fixed;imageAspect=0;image=https://cdn.icon-icons.com/icons2/3685/PNG/512/whatsapp_logo_icon_229310.png;" vertex="1" parent="1">
          <mxGeometry x="150" y="558" width="82" height="82" as="geometry" />
        </mxCell>
        <mxCell id="BvrUmkD39LYZDGTLJOgk-17" style="edgeStyle=orthogonalEdgeStyle;rounded=0;orthogonalLoop=1;jettySize=auto;html=1;entryX=0.643;entryY=1.013;entryDx=0;entryDy=0;entryPerimeter=0;" edge="1" parent="1" source="BvrUmkD39LYZDGTLJOgk-12" target="_Kxrb-t5wn4LIO3bqoOr-18">
          <mxGeometry relative="1" as="geometry" />
        </mxCell>
        <mxCell id="BvrUmkD39LYZDGTLJOgk-18" value="3. prompts" style="edgeLabel;html=1;align=center;verticalAlign=middle;resizable=0;points=[];" vertex="1" connectable="0" parent="BvrUmkD39LYZDGTLJOgk-17">
          <mxGeometry x="-0.2423" y="3" relative="1" as="geometry">
            <mxPoint as="offset" />
          </mxGeometry>
        </mxCell>
      </root>
    </mxGraphModel>
  </diagram>
  <diagram name="Whatsapp bot" id="BTC4zDXAr0ExZg54QyZN">
    <mxGraphModel dx="1941" dy="878" grid="1" gridSize="10" guides="1" tooltips="1" connect="1" arrows="1" fold="1" page="1" pageScale="1" pageWidth="827" pageHeight="1169" math="0" shadow="0">
      <root>
        <mxCell id="cFM16robv6XG40BqPuE_-0" />
        <mxCell id="cFM16robv6XG40BqPuE_-1" parent="cFM16robv6XG40BqPuE_-0" />
        <mxCell id="cFM16robv6XG40BqPuE_-2" style="edgeStyle=orthogonalEdgeStyle;rounded=0;orthogonalLoop=1;jettySize=auto;html=1;exitX=-0.007;exitY=0.2;exitDx=0;exitDy=0;exitPerimeter=0;entryX=0.99;entryY=0.169;entryDx=0;entryDy=0;entryPerimeter=0;strokeColor=#FF0000;strokeWidth=2;" parent="cFM16robv6XG40BqPuE_-1" source="cFM16robv6XG40BqPuE_-4" target="cFM16robv6XG40BqPuE_-21" edge="1">
          <mxGeometry relative="1" as="geometry" />
        </mxCell>
        <mxCell id="cFM16robv6XG40BqPuE_-3" value="4.1 sends&lt;div&gt;response&lt;/div&gt;" style="edgeLabel;html=1;align=center;verticalAlign=middle;resizable=0;points=[];" parent="cFM16robv6XG40BqPuE_-2" vertex="1" connectable="0">
          <mxGeometry x="-0.2318" relative="1" as="geometry">
            <mxPoint x="23" as="offset" />
          </mxGeometry>
        </mxCell>
        <mxCell id="cFM16robv6XG40BqPuE_-4" value="" style="rounded=0;whiteSpace=wrap;html=1;" parent="cFM16robv6XG40BqPuE_-1" vertex="1">
          <mxGeometry x="640" y="235" width="150" height="130" as="geometry" />
        </mxCell>
        <mxCell id="cFM16robv6XG40BqPuE_-7" value="" style="edgeStyle=orthogonalEdgeStyle;rounded=0;orthogonalLoop=1;jettySize=auto;html=1;entryX=0;entryY=0.5;entryDx=0;entryDy=0;" parent="cFM16robv6XG40BqPuE_-1" source="cFM16robv6XG40BqPuE_-35" target="TL35JGVnpgQ9FtRV2nqp-2" edge="1">
          <mxGeometry relative="1" as="geometry">
            <mxPoint x="50" y="207.5" as="targetPoint" />
          </mxGeometry>
        </mxCell>
        <mxCell id="cFM16robv6XG40BqPuE_-8" value="1. message" style="edgeLabel;html=1;align=center;verticalAlign=middle;resizable=0;points=[];" parent="cFM16robv6XG40BqPuE_-7" vertex="1" connectable="0">
          <mxGeometry x="-0.2615" y="2" relative="1" as="geometry">
            <mxPoint x="5" y="2" as="offset" />
          </mxGeometry>
        </mxCell>
        <mxCell id="cFM16robv6XG40BqPuE_-9" style="edgeStyle=orthogonalEdgeStyle;rounded=0;orthogonalLoop=1;jettySize=auto;html=1;entryX=0.327;entryY=0;entryDx=0;entryDy=0;entryPerimeter=0;strokeColor=#FF0000;strokeWidth=2;" parent="cFM16robv6XG40BqPuE_-1" source="TL35JGVnpgQ9FtRV2nqp-2" target="cFM16robv6XG40BqPuE_-21" edge="1">
          <mxGeometry relative="1" as="geometry">
            <mxPoint x="218.88999999999987" y="207.5" as="sourcePoint" />
          </mxGeometry>
        </mxCell>
        <mxCell id="cFM16robv6XG40BqPuE_-10" value="2.1 send text&amp;nbsp;&lt;div&gt;message&lt;/div&gt;" style="edgeLabel;html=1;align=center;verticalAlign=middle;resizable=0;points=[];" parent="cFM16robv6XG40BqPuE_-9" vertex="1" connectable="0">
          <mxGeometry x="0.382" y="1" relative="1" as="geometry">
            <mxPoint x="-43" y="-21" as="offset" />
          </mxGeometry>
        </mxCell>
        <mxCell id="QVjArZTux4F_Zm7OXIG2-3" style="edgeStyle=orthogonalEdgeStyle;rounded=0;orthogonalLoop=1;jettySize=auto;html=1;entryX=1;entryY=0.5;entryDx=0;entryDy=0;exitX=0.25;exitY=1;exitDx=0;exitDy=0;" edge="1" parent="cFM16robv6XG40BqPuE_-1" source="cFM16robv6XG40BqPuE_-21" target="QVjArZTux4F_Zm7OXIG2-2">
          <mxGeometry relative="1" as="geometry" />
        </mxCell>
        <mxCell id="QVjArZTux4F_Zm7OXIG2-4" value="3.2 speech" style="edgeLabel;html=1;align=center;verticalAlign=middle;resizable=0;points=[];" vertex="1" connectable="0" parent="QVjArZTux4F_Zm7OXIG2-3">
          <mxGeometry x="0.1727" y="-1" relative="1" as="geometry">
            <mxPoint as="offset" />
          </mxGeometry>
        </mxCell>
        <mxCell id="QVjArZTux4F_Zm7OXIG2-9" style="edgeStyle=orthogonalEdgeStyle;rounded=0;orthogonalLoop=1;jettySize=auto;html=1;exitX=0.5;exitY=1;exitDx=0;exitDy=0;" edge="1" parent="cFM16robv6XG40BqPuE_-1" source="cFM16robv6XG40BqPuE_-4" target="QVjArZTux4F_Zm7OXIG2-8">
          <mxGeometry relative="1" as="geometry">
            <Array as="points">
              <mxPoint x="730" y="365" />
              <mxPoint x="730" y="408" />
              <mxPoint x="480" y="408" />
            </Array>
          </mxGeometry>
        </mxCell>
        <mxCell id="QVjArZTux4F_Zm7OXIG2-13" value="6.2 sends&lt;div&gt;response&lt;/div&gt;" style="edgeLabel;html=1;align=center;verticalAlign=middle;resizable=0;points=[];" vertex="1" connectable="0" parent="QVjArZTux4F_Zm7OXIG2-9">
          <mxGeometry x="-0.0378" y="-5" relative="1" as="geometry">
            <mxPoint as="offset" />
          </mxGeometry>
        </mxCell>
        <mxCell id="QVjArZTux4F_Zm7OXIG2-16" style="edgeStyle=orthogonalEdgeStyle;rounded=0;orthogonalLoop=1;jettySize=auto;html=1;entryX=0;entryY=0.5;entryDx=0;entryDy=0;strokeColor=#FF0000;strokeWidth=2;" edge="1" parent="cFM16robv6XG40BqPuE_-1" source="cFM16robv6XG40BqPuE_-21" target="cFM16robv6XG40BqPuE_-4">
          <mxGeometry relative="1" as="geometry" />
        </mxCell>
        <mxCell id="QVjArZTux4F_Zm7OXIG2-17" value="3.1 sends text" style="edgeLabel;html=1;align=center;verticalAlign=middle;resizable=0;points=[];" vertex="1" connectable="0" parent="QVjArZTux4F_Zm7OXIG2-16">
          <mxGeometry x="-0.156" relative="1" as="geometry">
            <mxPoint as="offset" />
          </mxGeometry>
        </mxCell>
        <mxCell id="cFM16robv6XG40BqPuE_-21" value="whatsapp server" style="shape=image;verticalLabelPosition=bottom;labelBackgroundColor=default;verticalAlign=top;aspect=fixed;imageAspect=0;image=data:image/png,iVBORw0KGgoAAAANSUhEUgAAASsAAACpCAMAAABEdevhAAABgFBMVEX///9q1+T///0AAAD//v9o2ORq2OJq1+Zl1+H///z8///p9fbp9fRh1d9r2ueb4epf1OTj9vmb4eth0+T206H30aNt3O2M3OXy/P3o9fpt3uqD1+Bf1dyvqanm5ubB6u308vJn0dyAgIBn3+fIxMTW0tLP8vFy1OF9d3W86e9BkZO4s7OhnJyak5NwZmZ3bW3u7elOU1U3TVMoXGg9g4hRmqNbrrhfxdNetsZWo7FChZYzbXgxWl0aTVFVtrwgQEYiQD47P0E+eX5ny85bU1ktNDVdvcYnKyRCRkBYbWlLWFghS1VWpqpeYF3Cu71IP0MrcnFTs7AZLDpaSEsXODobVk4yWFI+g38uP0ktNEIaKCs4V1xbm58VVlgWGx0oNz4RRUceAAAuTUmfi21US0C6pId8alQ5NyrSr5XgwqK6lnUteITJrYJ1Vkj/26/syqYODx9UVEeR5NoXLSyYg2s7MjKD4d2p6N8qEwBeRzT/5ax0a1MIGhphVj2VgHKkmYDLXUWVAAAVF0lEQVR4nO1di1/bRraWhDQjC0uWsZGdsfyQnxhjCAQbKOTh8GhacJK7TbfZ2ybNXch281i4t83Cbfd291+/MyMbrKdtIkM26PsZhaCHZz6dc+bMOUcjhgkRIkSIECFChAgRIkSIECFChAgRIkSIECFChAgRIsS/N7jrbsAnikKlvNBcJFhqLiyUy7f5627RpwiusrC0vHJntdVeS0BoYKy3N77Y3FpZXKhcd9s+KVSay3dX7xkIIQEhgCEQAID/gGrrq/e7jVC+KCpzD75bR0gpAQAhZHs/5B+WhSwQFQ2Bjf2l3HW38/rR6DxcQxolhgWEG/KrwNqglLY3dwbZkq6twdeGxu4GixRFA4JJFNE+/C9WwD5LgoJB2ELGizl6TuHx48bNE7Jcp1XSAOZBQUAwubJIk6AguNa+194DJQAB0tpf5pjGozutdmt1N3vdjb8KVIqdr75ebt5mmIV9o4SJ0hQWj3oIK6ICiIU6BywdbHWbjfLjZvf7A2zzNa1290mrhBR8jtZ6VLjunkwahZ2n2wrWur07xcWWAoCG/uPO13NzzaXu9/OsAonN6qN070G2P/zx2efbmEtFe9gqsYooYClb+/Izd1Jzf1jDfgGEQFF29zQBagedbKG3r7yziqDY5wpqW03yVw6D/Mt/08YUw9LmDxqmGAolsLdzXb24EuSeYctDiBDg7poGNeVbYnYwF5wk4ZGtfL92brG0+xVzD0dkiwx7O3saJgv9sb2+V8LmHpS+K19zdyaKDrHeUBMAerCnQA08yGEWOE5iJC6Ct8zt50KPq9LTCt7B4D8zPN5KZPunEna8APrPqanvAfkNLl93fyaIxjz2N9F6q116uFGCQFvJYYFiqI6ZGya3pZkaeK9J/8/1dhLGmMfzCpZIUJuamvoBYTcMvShca3cmimUsVcoG7urUJu4rmm84D2m2FeKyo/v9P/ADbudzTcSOl9LCgoWwG4ZWP+OZ4its1jVC1csa7qr2yOUQ/lssO1DbI2KVqxTwVrrgqrknYp9VQD9OrSI8XVR+eHxFDb965J4ioBANmmpjTVPaxK5XsjYXfAnbfagRieniA61klFuIOBVa+xdExgDtM5YrwhVAX05NPdewI4Xe3Wb4DuZjwXJQdh0roXaXZxYIqVMWJm8/RNSdB7sa5Wr/Spt/tXiFuVL2Xk4daCwQS3cZpkj5sEhHuYUn0tpXDPOS7msO7ivcMS2/stoG5EpLV9v8K8WigX1QRXuJROw7oGcMQ+mYKg4ekyNcoa/MfZWiZV9h0+SKrW1hN630rHClrb9a5F7g4a90D2sSwBb6vslHrtkdPKZCubrDM8t4X2HBoqCVVWRyhVawcD37fK0VwcJ3SEFbazTyiZ7yTIdyZQkZNA6wy6DNl5kKlTnr6es9udJW2xu7uSvNWuCJRTQej0elS0fOeKbnLjKj5Vuyr9bQc8TiAV9A8xWTj5eWI5ZkzKMOsKxVOlNLBcu+R/0ohLL3X42e/3oFkKbzsYysyqKgyros65n6rfEJk9LpeLWar1ar8XR6tFNyi39+iHCPsfBsz2E+urtFayj9jxqJ+KFNl2je41YJ9snqkjniVXCVrqZkQyaDL9QgHlDwzJ0VZSMVl0b9dk5KV+sZw0jIaiKhqrKqGnqqGmX44TmE7IYCaOwT7Rece5vrJC+hQL3D2APFhQcaK/bipWj/CnjiIkw1I8siIJNYgSYDsO+nCOT/CdnID1UliUh+dUaWZVUgJ/fVArCCrNbqw7laEhWBnqlsLzp2Vu5oUEFr64p2r2vjKvdLDWKnvSdX2A2deGonXa+pJEYErCHIPuRa1f98TFQ8JgsqdDmZhAcSsegQtlcQoLkagUXzTdu+3H2k1Z4SI/ane/eeFAZ3NR7UlIvvUe5NOobMReo6zbsJPVFwAEA5E/W7hJQ3ZKwjxKa4ksVCPeZvul4QgwRJ8gFPfq1kNfZZbX2qh43afvHcaDWetLTBrxSMuYnmcjgmbqiA5JOoDkA3rkhf9bx3K/K6KJJUiz2LYLkC1mRv0ao8JFyxNF0D0UHnIl5X2fmixGoP+lx9qaG9p18vNReaxZ2tVgkJlvaiicauOCkjsh6qY+2rHPO4RBWonvI0CPnU+5bjOcxA9q9UWl2Za5Rz5ezcyirQENqbOse2AjWkr6+vGwj1c6sXXE1yLhipGlAQ3GyUkyw24yIXXDqlO7JS7hCgHPdqR/aeMmAp8UCMjHZrvtXWkcYqxsrhUZ+q13/ZFGgmWqHBVGht+0TjfHWZDFUjcUX6YLM5Es/EdaFGcnijiCbLYkV2R3Pbfj6e2WmIGnvw02zy+PAn7J4+Okwmj/963xCoQNGBCBuOgZMmGY/5OQFdBz53QJixjsgSk0+YQjUaVVgPPcia24ZQcOTgzf4/fJOkmD3GP7PJ5JsVzfRKnCcorcnE+SRGyuB7I4zaTUKIMGO9Rkxmvcc+tysIHmQVdcGrGegoOZs0WaI/yeRb4reaKXvbSUrbJQAdCFmZBCQ58DG4AnL93GZhQ51K+I99bpdwV8PFEvBohjDAVdLk6uQdqXQwubKepezZfbOAqDpNjMzSRV/l6QuuUjIYkyoCVwPfRW4qRbmC3x/PUhV8//490cLkb29bmtfF14ouFw+CqrG7SU0W16cqpo6ngP0rGC5e6bLmaTZh+2/J45PDo+JyceHow8lx8s0DxfMmKxMJisZ0rIDu1tSvp6ya70256qqpgKPrcA9qLOJwPghXXtcptfenitg5XcT+euW//+doq+Zp21j0zQSoqsteBmIIxJp5gaouXkYDCYy4g6yup1axpGaGuuOdHL5LX5cGJ4AOoAlUM8Rlb5mCoizrnq0R5Dq5QFQmLqHXMYIoOqvwLnZnHFGepZIf6VqXzMU6BUxxR/NwLUygr0aeD6anMaJR7605A+Y5w93/FARVNlJ1jBSeDLtrBQTkEhkRUBfUsReqgpyJYWRk2X1uyQLdEbbAPoMfV8uUKxLy7CJfrpSvR+WqqquqKut4Kw9u8Z9620RvTvez6xwQiELiLN77LikaS7i2CpKexgR3+yrKmXw0jW8GFhwpfpbw6BKwt3zO4bdbuHpBLtgpMMxQrn4ZVaoMSgAQ+1vhfMvSraCbQ1A14eolq0ZVOg+U8yTSYrvb2KNJYDLIzMYs17QCe5ox6hDwfK84QzpTXbvk8Bvm1vyskHKwwDC3p0jwoTOUq9HkqqZeIEE/9t/zJgsiqQtzGCz5LH0R2OfJh4vW+i0jOXJVBvV4lJCZSbhxpcaiEUuDeCLqrl2LWQ9ksnu+QzK6m80+q73KVhZb/lyhZ6NxJcWnb926RX/Ipgf6e9zELbOFdd3FWFHVkiIciY1ffB1/2otli7oRi0eJ2cA786rgtERCL3hqayueSLn0qWYz7tkD/wEVHWxomtZ6t4YEX660+8yI4CIcF6E/ZGP7HX9Mzyiiuxh2cZuoJ8fZM0ZpMlETjFR+mmqVRA6QiK7b+wZP02YOwn5fJbfhUrcpYWMIV6wCdQhIxMo/KIJeBRsXrbPQadhBmlhjWl0oDcb3uelMJl+l38+ZTHJMXncWUrMZiaFcObKKfFR39k6sWw+qtIa6xWSaDxTo1vgBru4GyRVHRgD71wk+IUvLyWQj6WQUtXGlSybHbgnYvIv3kbIeUnnnZ9tHB+bKp/XcgI45P5GLT0+5InkyNFnbLgjTY2Qg8eho7zuU00QeqQI6kk48k3GqYcZ6TOEhCoQrzY+r+kzMAzO2z0xvynpKdN6KBEkbcK4y4YKaYDdXNCpFRgV8Bbe8qd33wPqkpy03h38VEFdbfhkUHXtQIgXb+4XMMFxgmBe5pdt9KwBq4xQBxFXHNFDMELH00EAMjjh4FkDZlkP7Phgd1O74tDthVgH0Hhcjwa8BIuAA1J6FqAtmbmmAK7nKDZDFRdJRH0yfyYJ9EFTJqEakyksyYw6uVNs0ZyUgufLmKpXBOM1cIJXCnwvMzKRmYvQzM9PzEzP0IYRBrgRiOwachZh87r+6fQSnb5Uhl+Ylb67y9igKTNi4WvYLNIzB1QtPrsZH2qBUWbiyRnWrqn+kxZnHxzIyRIWnDdtFoGoLJc9dLkLk4GozwHqGvAxY1ub7WuOUpwlfrpyRUKAPr+OR7VwJeespi8anx1VdJhEGC1c1y9BRlaEwlCvLAWJqKFVczXoRgbVz1QyKq0JwXMVo4c4gV2LMMnydii4Py/rC3u0RuML3y3bSwnogA+EluEo7QemQGGCXKprevBDcqmofsoYicWu4w+G4qGCz7QvtgLi6PSZVeRriI0WM5x9zssrjaS9rS6vJVew/npOVGt/GEp99CFtpW0waANHGVSMYrlyrJH3ASwlSoEeqes8/YsL0k9OqI8onpwfkKm6MnrLvw+CG1jjGZbvjfpFnNFE5CISr0rg6+PNAnM+EoCZMPznqLL0jsdJzsUiNrYG43xw/TAnrjsvKg4NvrpEttoLh6otvlpfGqGmQqnkXmKmTqOzGFdfPQaUN/0HQHcPrpFOifbgYmDtnH/3l9fvDLwLhCrTeHCf/9dNHVjVwfa7suXAxfuG0x4Qxx0ACWRpmr9Kyg6vzmEyh8/r4OJn862owtr31dnZ2NvkhiFS9i1wRr7sfrzEu0z552p8qnsmLDq5i/VT/bpKWK7wPiKuN14Sr5IcAaoumnfYqcVHbmDYu0z7vaj0TpMzSngjB03WTrIX3x7QC5n0w9krZO6RVNccfXzhKfAb7OAjP/XaOqcl2JLShSinO+H9phKQybEZQlnpcLZ0cklK048ONgLj6QEpq/n748UooMTXBUbsjRPsqZD6IY0VmKFeC4TsflNI1ZyYj1df72y8PsRwcf5gKxr9S1qY+kArA3Y+miiG5dWcipO7d00h9hDIYoeosfDkHx8VYR+WDnD8feudOksnXu5VsMFyxtWb5p8P3AYgV0587WwCFtKcvGVVrI/imNW+usGFX3SIT51wVOovLeIhf2AuIqx2GKTeDqYTMO7liEymvo6XRvPjEmZcSSpgqxeGw4em6/YSiEQRT+MZ3g3vOK55w6iB01q2Y4E7hxVIuftA9o31VoaQ4bo4R5ezzooDiV2b5UUBscW5JZ4CHfUf0V2LSKdlplV3deijHI87vwpc8UyFw3psZhrOnxgKKi7JaJ8CnLWNuSW4BC4aDrPipyxCYqJ65DoxENG3dl5hoyun6Yqhp5xOJnWDMFav9GCBX+YTryCbbn/GT6rpbNhxwcXs82ESibi+ZjdRVkTwLYodalyIOKVwJiCu0RVY3CogrZtu1VBvqIJ/uS0aES9cN1eUwkYiP+8goqHo+zfVbyTHpPFBdS1ogiEScvdkKJudFuAoQdfdiO0FMGKf5ajyejlfzMd2NKTqA8WQodQW+QCxPywKleD4m68A9GK3HOeed518FJleF4Kjipj0qnslfVUHWdZ0kS7FIuFjxbYlnuLTPyIgnRTUADJIEh4qrWMlnDM87uCo8DMpeBckVtu5+Qw7oLXYquDygCulwyTN198JGAgFAAXqXn2OkJJqhtrWpElDtB5WrAB8QT+u+pXHekM0nS3nJnpUZAyDtVs/GVIIJyWCunhaCXKEhUncdyYdCjVGpkvhI3N2ajQB5mpp/R4C+fBBMjp5Fm4WhmZIxwDPDYwcuUFO0HI0nbmTMw7wPA7br7uN5NkCuAl3MgpT2jd2IhC7xdGJCWhLJ+NokD2B753XLg+MK62CwiHs/Q+IBVecjHE/9vEgEe0+nl+iHXPU0Jdm9yzzY44LgufIqO/cCTGTSZIVKWltLyymnjXGffRJqRAG9uNoOiqtgx0GKvDxOV4XTiFmj3PtgxGtjZV2hXEvTRVTdm1MMTK7uBjoOEkhM1Ri9ATr2HxmzPJfrT0256VGigBeXiNHonlc35tYCijOQ+WCgTFHEgT1x7g4AAKl4cK5oJWVG9NMAwPpHlufhr4CrleCZwkhnRtJDOUMCCK5R5thIjhoU5RSNQfiUPcytfTRLJjBX/ERWlKm7PNFgQ8KgMVP3MEekqntPd86hZqZ7yucdLGmuBWSv2O6opedjgkvPJKBPI6EO6kzEWxq4iFTf9jfxCTkVZyJkhRBfBOYz1Ca4YmaU1PF5dFeu5SNDo4yRs4Tq+owMKVcWjFS094yPv8nNtoPhSpjQAg09pM9YlxmLINdm6OJxwxeg4/I13WWY0OVahhQ6SpL51JM/V8H47QAcTHp1w3gsY5DV40QRCuQpYKOWqZN6LTJujbRYn1RNZQxVNR9IEEV8DSMTq3JE+cju4VxVWsGMg6V3OSbIubM7SDQ0NjMTi9XzcXN4Z/qzvxGAZ9TpeD6GGatlYvV6lZSDSPbn63yQCyh+hfYnz5QTkkQZY3zS78PAuQSLPcDfDYar0qPreIMcfQyV9/YeR7nEGOcG9DzO9kTWk/nEsBiIvZrU+lefFppB1H5AMnP+/FGeD0IJwef8DpNzcEEYd2XjRrzPi+kG4LijbwMPXn2SaLTQ5TJxF9CNpatbkvxa8bz0sVyhp2TFzJvwXtDiRz8VR+ofbwJTDFPY/0jrjjaJWN2M14AWP64UGdKF3ycT6Pv0sOuyTtToVKE/FJibw1VlC11+poM2yzfEWJloznsvMzqMqvnmDTFVfcwdaJfjCh0s3SipIpi7lEcKUet/F0Z5W8rnBL7766amOBbbGAJBe/fht8Pu8Mt/Tqj8/U3y7f3tIWvy2VHa/vHt8ezx6xtFVuMoOTs7e/LrF2D0pA7QSqu/ntCF3V9PNN31aaHxj97C/293DzTyIuIRqNK01v/97bj32oDfb8z76HO//pacJYKVPD7+59Q8QMowRSyVjNXdBtP4nTwxPfs+eXJjtLD4JvnP90SwZt8cFcvl7tYBi5yrMFJAASoIGRt3F+l7dMq/E8k6enPs9lrazxKd4zdHhKrjw+UC+X8h291f3dNLSOmtkUtpI/9BSKu1Vx8sNvheuGrhAz7v5OjmcFU8OTrB4vHbP8z3XRNwlebOn7dWW3trNYRRKpXA2l574+GLlcWF/stdaElm8RCr4e//ujHGPffTP8gD9UcNpl8+aBJWqDQWinM7T54sLz/ZWSoWs+WeCafvWOfN9H/xAzbtNyE32EOhg72rznk9gn8wmDuvPTVLJcrd5bLf8Z8bCsVuw3zd/HW35N8EPgW4IUKECBEiRIgQIUKECBEiRIgQIUKECBEiRIgQIULcUPw/k+8WijA40AUAAAAASUVORK5CYII=;imageBackground=none;horizontal=1;" parent="cFM16robv6XG40BqPuE_-1" vertex="1">
          <mxGeometry x="230" y="235" width="219.23" height="123.91" as="geometry" />
        </mxCell>
        <mxCell id="cFM16robv6XG40BqPuE_-22" value="" style="shape=image;verticalLabelPosition=bottom;labelBackgroundColor=default;verticalAlign=top;aspect=fixed;imageAspect=0;image=data:image/png,iVBORw0KGgoAAAANSUhEUgAAAUIAAACcCAMAAAA9MFJFAAAAllBMVEX///9aF+5QAO1YE+63ofdgHO/BsvhJAO37+v5XDe53SvFfIu759f/Yz/rGufhTAO3e0/u7pveehPSxmfZvOPDKuPnQw/no3/2SdfPw6v7ArfhmMe+tlfbr5P1zQPDXyvr08P6njvWdfvR0RvDk2/yIYvJ8UfFmKO/MvvmLZvKVcvO2n/eegfSBVvHZzfvCtfikifWDW/I9vI2wAAAF40lEQVR4nO3daVuqQBiHcZhJEZczmra4hppLtljf/8sdPF11ZoB5eGCwtP73W2scfxcmDEiehxBCCFXVBSpezyBUAhVOGYQ16aOCyRoIHQOhcyB0DoTOgdA5EDoHQudA6BwInQOhcyB0jib87gP4U41PKEd1lNFIcgll2PBQRo1Qsgnb3zTHE68NQtdA6BwInQOhcyB0DoTOgdA5EDoHQudKEnZVq0ThjTb4qywzRGujT3BTahZ9bYROqRfSUl13wkCWSOiEl6rMEKExQz8sMwud8KXUC5FBBYTmCg8zZRKWGcKcYakFTYOwU+qF+AKEIAQhCEEIQhCCEIQg9EF4goSSe57aThhSQ+g/SBByv58QTKyE5O/pz1UxoWzddazt9ddvJQxXXfsQ3bn2k3ZCNSfG0HuZ2ggV8UI6W6k9WeWExDn6KYtQ3dpH8Ly6/mRWQlGnxrBlElIXG0ThNxHeVEA44hGOqDFsmYTUiugQhNmdAWEVb+RfTjgCoRNh90nxdmpAmEk4nAyEMnd9j0tYwSfyKREOR81AhX6ioxLKzYDX5uIMCLcPoUj5HZswniAv+wHeqRB2Fyr5Bv4aQm4nTjjtj21+/pGPTtgRhOTRyVcc4EXxH8DMN/DnFK3HyOtRz96OdYzMzk4YPhKz6B91meEf4XaV/QdQf+KjrtRwIxa7uLOonvB9D9D+Bn4vZtLXSLBeqD3QSu8BpgqVGPQifXAQ6o+k9wDNpAoGk6lnBkL2s0klwqeulwqEzOeKP2J212k/EDIJ4w+Q9T7KBAQhi1A1L4YWv4oI2XfEMvbpzodQXdr9KiK8YrYd60cW50PoB9tjE7KbafsM50QoVcYHMQiLEPphGDEJyYUqYoYVE5KLZF9BeNgDTBjO7GsfOqHcNJfWmgN9YfWYhNI+ibgjLjN8cMV7gHdviXenemYR0otde+tiFzseobL+vnfcxa53v6B52ANsLBOGwvqxXMWSKzsm4XctuR4uCFp+7AE2xon3cvBomVIVhA1mJ08o5/faM9WShtnHd5UQzphnnAY1bUInSCjHiacyDaW497KqgpD+CLV9mp48oXefWDsM/ShrSjj9ZCeMH0ycgR9k7dqAkCD0/gTmpNUKhAUJvX3CUCxAWJDQe0wa9lI/AkKa0OsnDNO7NiDMIfQWiXvSGafhQcgh9HamYViLzMdBmEvoPZuGamY+DMJ8Qm9tLjkkdm1+O2En0M7t2BZPGuPAOAcUGLs2i0B9Fuwowp4+jLEgVeofshjffnrRZiEESWiM0XEmjPZ//mc9RdLWfyqurp/Q2076n02uKMIbYxj9kT9l2uvH7FNtFv0JdXFc2xgj0h7ArX5cA6FzIHQOhM6B0DkQOgdC50DoHAidA6FzIHQOhM7xCX3Z/BktJ2W2hf7MOqCpRBGyLx049YSaRIUJn4R1PJ9P+GOSJRC5F+X+EsJ/iPNiiCBMFSO+FkEEYUZSiUviezEg5FQEEYSWYsQFDxGE1g6Iye/5grBoSuzyEUFIFm+Ju+QlPyAsmhIPNCII81PBQ/Z19SDkp8TKjliSUAQ/L/JWJipY2b68miC00wjj17hfLjqjhgtFI4rnbESTUGztOMRfgx/S8JW+qU4YPHcyfi1BaPlK128pelWCRBTNNCIIzaK5oBGD9V3iV0CYLJrnbYlLExGE6aJJDmKw1J1AmFW7H+ZsibP/UiDMrv0oc7bE2cdV0CC01X70c7bEwTsiCO01Llo5W+LgcDE9CKkavVrOljiue68gpOtt8t7Oa/PmBCBM1RhtyJv5SvNBEGZWHwQ5N1QFYW5X47zbSoMwt6sZb0sEIdF2wNkSQUi2XeZviSDM6XqWe6t9EOZ1vaa3RBAyumtSWyIIWd292bdEEDLrrIXl7DEI2XVWQSYiCAvUfcvaEkFYqO5DGhGEBbtPvZ1BWLibncCSq2s3D/p1JCAs1fRWKRA6Nr392BJBWLrDtXUgdGy4OGyJIHQqugwVCB2LLul/KIQYRZwvTCGEEEKu/QWW0Bm+rGzfTQAAAABJRU5ErkJggg==;" parent="cFM16robv6XG40BqPuE_-1" vertex="1">
          <mxGeometry x="650" y="275" width="115.59" height="56" as="geometry" />
        </mxCell>
        <mxCell id="cFM16robv6XG40BqPuE_-25" value="NLP tool" style="text;html=1;align=center;verticalAlign=middle;whiteSpace=wrap;rounded=0;" parent="cFM16robv6XG40BqPuE_-1" vertex="1">
          <mxGeometry x="677.8" y="200" width="60" height="30" as="geometry" />
        </mxCell>
        <mxCell id="cFM16robv6XG40BqPuE_-35" value="" style="shape=actor;whiteSpace=wrap;html=1;" parent="cFM16robv6XG40BqPuE_-1" vertex="1">
          <mxGeometry x="-100" y="101" width="40" height="60" as="geometry" />
        </mxCell>
        <mxCell id="QVjArZTux4F_Zm7OXIG2-0" style="edgeStyle=orthogonalEdgeStyle;rounded=0;orthogonalLoop=1;jettySize=auto;html=1;entryX=0;entryY=0.5;entryDx=0;entryDy=0;exitX=0.5;exitY=1;exitDx=0;exitDy=0;" edge="1" parent="cFM16robv6XG40BqPuE_-1" source="TL35JGVnpgQ9FtRV2nqp-2" target="cFM16robv6XG40BqPuE_-21">
          <mxGeometry relative="1" as="geometry" />
        </mxCell>
        <mxCell id="QVjArZTux4F_Zm7OXIG2-1" value="2.2 send audio&lt;br&gt;message" style="edgeLabel;html=1;align=center;verticalAlign=middle;resizable=0;points=[];" vertex="1" connectable="0" parent="QVjArZTux4F_Zm7OXIG2-0">
          <mxGeometry x="0.0808" relative="1" as="geometry">
            <mxPoint as="offset" />
          </mxGeometry>
        </mxCell>
        <mxCell id="TL35JGVnpgQ9FtRV2nqp-2" value="" style="shape=image;verticalLabelPosition=bottom;labelBackgroundColor=default;verticalAlign=top;aspect=fixed;imageAspect=0;image=https://cdn.icon-icons.com/icons2/3685/PNG/512/whatsapp_logo_icon_229310.png;" parent="cFM16robv6XG40BqPuE_-1" vertex="1">
          <mxGeometry x="100" y="90" width="82" height="82" as="geometry" />
        </mxCell>
        <mxCell id="QVjArZTux4F_Zm7OXIG2-5" style="edgeStyle=orthogonalEdgeStyle;rounded=0;orthogonalLoop=1;jettySize=auto;html=1;entryX=0.75;entryY=1;entryDx=0;entryDy=0;exitX=1;exitY=0.75;exitDx=0;exitDy=0;" edge="1" parent="cFM16robv6XG40BqPuE_-1" source="QVjArZTux4F_Zm7OXIG2-2" target="cFM16robv6XG40BqPuE_-21">
          <mxGeometry relative="1" as="geometry" />
        </mxCell>
        <mxCell id="QVjArZTux4F_Zm7OXIG2-6" value="4.2 text" style="edgeLabel;html=1;align=center;verticalAlign=middle;resizable=0;points=[];" vertex="1" connectable="0" parent="QVjArZTux4F_Zm7OXIG2-5">
          <mxGeometry x="-0.2728" y="1" relative="1" as="geometry">
            <mxPoint as="offset" />
          </mxGeometry>
        </mxCell>
        <mxCell id="QVjArZTux4F_Zm7OXIG2-2" value="" style="shape=image;verticalLabelPosition=bottom;labelBackgroundColor=default;verticalAlign=top;aspect=fixed;imageAspect=0;image=data:image/png,iVBORw0KGgoAAAANSUhEUgAAATcAAACiCAMAAAATIHpEAAAAh1BMVEX///8AAAD7+/vCwsKpqan09PTn5+fS0tJqampvb2/Y2NhNTU15eXnt7e0lJSXV1dXe3t5CQkIMDAzo6OiDg4O3t7fJycldXV2kpKT29vaKioo7OztTU1Pv7+9kZGQdHR0WFhaUlJQvLy+np6ednZ1HR0eQkJB1dXW6urohISEqKio2NjZ/f39nFafKAAAPx0lEQVR4nO1dh3bquBa16Ti0ADbF9NAS8v/f9zhNxTY3JAOI5GmvNXewELa8JZ2mIyUIPDw8PDw8PDw8PDw8PDw8PDw8PDw8PDw8PDw8PDw8PDw8PDw8PDw8PDw8PDw8PP6BUi9e7/frSnfiuiW/CbXpJmSsml3XrfktmHyGFmY11y36FUj6YRYV1236BYiZq8M4Pr4NV3QxdN2qpwfR9lqW6+4CCxazZRimh8rAZdueGD1kaWwWJUtL2CWumvbUSIEbi5rSNCPsXryayGEMxJTNkkpOSYTh0VXznhagBj6N63pKTHW29fa83auMwvw89kCl0NceQo1pSvXEHTSxJHbRuidFbYqDay/XExZsfdt6O2Jh7+HNe1K0Gyy8Ii6I2fwdZj3UOpTuHt2+J4US/+8lvK6f6HJRoDzLfqYKtEf6itd7uthowWZOzMP5q48Ht/Ap0SKTdgvWGVxP8Hr1piqchVpHc9iGb32YhKy288yLhLcqXE+r8n33BSuM1JhrmvrDQC8eNhuNwzqpFnx5K9QRc/vBUBRd+MG9gL7V8ux5dg3eTkqwzQ9qEouOAJ06y90nTrVp3Grfq7VdekDDKkTrKL3XIy8ARlO/Hdi8jfjL0hbVJws8jigB05uSfZdoE1pY36m1IoqtIY2C5uVOT7wAtCvQtyrg7fjByrNGcZHwBGIO5N/KnilxmMXiPs2V21sK3QVvDTXqc7xFOxiKUzZNXqnBoxo2vm/xpmjrnNS4GwV3wFHubskJB7xVwb4lkZrhrd3KTLgKRzH3tfM/7+ZE6crkBNXRLjPDRarjv2J2vu/HO9zdDAU64A2m6ZI+mrwtgq307KsyOZTrlZXCNMZSNQS53u29sQEOZPRttkaxA97ACOEwuKVPgYplpY2aqqGUa03cMUuhkSFjaorWnWYqduYapcK7UeyANxgabOCavAGmYHZ00bpYK06SU14ud7DEtIRLy6IB107K5ZyVBYVJYfw9On+RsWdQAkRzvLlxJwe8tTQHNm8LeZcYOOhrnsiXPehbJFhg68+xlo3oz4bn2++IcXOCBTF3Q6qCoQ2+GUvTmck9WObg4iF9xmKRA94+i3kz3CoOlb/U5XqAzdZeGEkze+GhhmUYNmHe3mSGh69KpbRfVKFauSDJECzUF8Y4HsL1nruuo+WCA97WegQU2b0IIiFsitwv4dxVWmCG32biTSmPMuZtZRp4J67TtpdqqWOQt8NQF6/0TfG6xx6y0VMOeIP3YZIu8nb2D0ZIjoi5KsyhJn87wbfP+l2kQIBb5A3qdF54prKFUkKjOvw8xhRFRpaJt7PE7KvaagrjnTbwaUSDUuCAN/ROiQ7gDc2LAt6GFMj84CmN5ifLbNIih8DGVM2xsrz+eUTOyWHr40zFzysU7yQi0YtjDofnKjWaxkpy4txFmUkyVk1UF/5CKg0OSiCj38voR2V5+xQxx3MaRBwvz5B2+wxsbNXUY95Y/Q3VEJobkxNjetRpxFuLWoSf1bSWaSq/VRF8F7zBC3ZIOJFdO4uCQt5oVFBgEzuc61zHmzgPVBt0YWxOb/KfYAQTb6zMkZAl65E3xS0FI6Qtbnir6u6VJazmBd4i3VYw3N+J7XnhPKVxBQZz2SSCtQjcHiWgmDddNZasmBDOxz4LhFdjvFfU7QEueKORoYyqhBRhVp9meQtkeEh0ONtqsiPgU1l9QjRlpFj5E3ousx1CiA3eKAcjaQ8AdCG+sxPeAnv9j7ry3Vi1h4S4HG+bULkDxHQmHof2LDq+Gd5QksHyRJ62f/OWTbgwhqUb3gZomafKbynhHHsRQx15zPF20rxRQNhKj+DBgb8q4g3u8l3eVgU/YJvYDW88YMKDkkE9nGUtsL6SjWbA5A2sEq5PMt024KaaywxvKEFBDGDxup4YAAVwiTcxZyywNnLDW001Q8faErBJ+2PSE4s8b2ghsJ4rkdlvOlqkK2gx1uZtspT3xQ6xnFXEJd6aRbzxbd3wBuaFCGmda/Qm82LWa+d5K5sNXVNFY42aIpdjVVVP47J6DK4UnIIsLvBGPWGEQs3buuENBNiwN2OWlBtdRdEOCqLADgEjYqruQBSv5KfsrvPaNL2giHCKOSn/y8xtIt4v8Eb+bV3XJpuY9L4b3rbUkWV6pfBADjsZJDiP8ryh2NeBijoPzUZ5HswTWXJiRcOCaQa3HRCjaOyV6HlTsgIH65T64QJv2JqO2WzKlsI57Ia3Nxk7EhrflkzNUMTbLDSs9aBoOUtPeSXQR588pjmUIj/aHVqLjpqExbyRDG4FuWeir+WGt6Ma721eYz7hkNmJJZKze9EjtwJueeKUXUJxJNOKECchI+r/xRvFA6xHksRDttzwBpNuJZ9lSIQbbZBtM7ytzVdj1IwQ5BkzHfmmOFIvT1vWlCVtXswbWUP2I2miglR0w9sE1tWUxD3iKhvMVUYZ9IPB2xyn8HsuB6Ss1mzCpjkw2A6RHhlZge+R/GQ15H7Cu4ubR25om++R6Sr6EkIETvIc6LFNdQWpDQcVzK3NVOuQt9M6VN2cRakbj8fjOLP0ouy3WuX8ZZbuSXIurRz17UoI6ypbmKta/PXdgerQCONP1CpSlePVnZqqh1h+Y2k04y/8JYCSL8oEfOMFAE51UFmZs3lB5Uv4w7xh9GuWHegJSbqwISyx/tt8L0n1OXmrfqfrLwIV285a5O2xyH5VGgMDbatmOf/zf+IpeUtutH2FpP9YDbk5CzZjvZki6t+/9VPydijKfPwBSmx+fca9Wi2qiEmxN+Yu2pk/2CrzlLydrYLTTRRwqSBOY2fhw5Bc/SBz9yl5A4P6JhKO80AM7OrW1yjufrJt4Sl5A1P0Vmlmk7GVo7sw+6OHEbUf5Z7Ou1EUPVvaPqzF1r+udi2ibSPtfOyGROBeFOyAQkPp403ye+HGvAmqPPJ203FlPOT1h5c/dJgIuD732IA8WYRZZFeWfzXWOg3gxqAUfIXT39pY37/bRoGgFKsgT9j4rpPw5IB00Du+UjWpbLfbSv0PCTbEvO93NP4EsBzwt+TOQxD91BT9P0d6JyPkjwPCr/farnhL9CpxXCnybNtx7KDbJ6sw7D/+sYJ2DWBo2mqmoITXVd4DUtDS408jBf8Nn/e1Qb7CGg07I5+omSmgHPGu7NLI3YDTmB5t48DK/122eF4Jysg1WsAWsrrG2PuqdJE33gV2oyjY1ZjdMIL0I/TtuFrEroUqoBTr4PJ4W7oYbyAcpl9XuyPI81ddJ0k5EmmbYEYIpL1c4I0m8r0lzf7DTk1MrSOgXIBSaZRcl11B0syeovUSb8GkXL73LAVhYW3SxFb1Zw7P22lb0aW5hABkmQjZ2qhPP1gIuwGwb61oq6w4OVQNmI8p2SywirCEkj43E9UrpuO44y2T3giYSJDH3VmntMTKsXSwilLkisPPoZJemrd2FPUuz8xJL4qivCFc6hWUQt3CW9UiQ1m+FgnQQfe43mSH4SORaGooQa2xhgJyYWjeYtuEty4ubvfVRurPU5qeZF/XZDsi/fqxQOK7H2maflSDSQuzLTbWKXRR453ElCLlBLWToLcLje1usRpW9fRg0QRh8kefC6QwR0uElDrmkVYSLeBw9Y9SWZm3sUhAGZEoatjeM/M1MaWMcp8mOgVqo0eXcaD1jHUjdSHZQrITGxKI6aiKbpg5vBka6s6IMzbl4V69GqkKfBW0einzFHk7mfs26OdGZuXR+JKyeImwxChW50XMzMp8gh9+PtICkjAEfYFJIGgSWfN1HLpc0d1qEuBd+rxvAYfTix5YtKnv/N9KVrZpRGjeqmRDp/vKdrEiFU28wXRcyq9YkpPd+DIej4xS/MhrScLbq2itQ5g9BKbh9MhEcrWAHNxM8MlOKwi4OXQxbWuWtLlTpI5ZojZr3mi4sRlfRgtQJui+Bkdv0mcUjIbZWNelMvymyXHBOSyw1RM/wuzNJNGkZoLp44FNhddM+F3w/5CgjJKGbSTijfcGoxdBS3CaNxq4VhpZ3Ro7lE6OLJzUJxYGW9WSsI8c8vpeLJy25EMw/WRxCDfZrJ2dGt4Qdoby3tj8gGNHLKCJN043I4rQrsjyZrmNxJtEs0vvUhfLN1yse4d4s9YMGryLqaQm80ipIXYKX2I3xghtVS1R5PmVm4bNx40QkVFL4h4k6VGXad5YZzSNzIO6TQTO71XAkkAYRj2E+gJrmztRULwN5Ylo+8ahDtesOQP3O4nKt0ONSRiol8GO3PNmZq5l+Qv1It6qcpBIZzy36qmpu5aBjEN8JcBXh3mJX1suQHXJs3wtD0+tU+vKowKuHwVU/BViBgcLejY7Gggieb/mzdxc2qoZ9dRrKtVtHAbJ0LxZJhr0JdoeDdYKUGC585Qsf1tCrgRaoC1iAAsmsNGqX7VC4FfwFtSNFLJI18vzdsrxFireLBOtJl054x6E+Wr5a2MYro/fLQLAcXLCVrOmRzK6e/Olr+HtfKvpuxAxUfVU6gvuJII1CrQQm8dY46jk20XeDtJWQ4PSgZwrN14Dn50C/7BpgObVdmf25HW8nRVfwobrOLBsM8BOugblWz41qpg3VCsLVrk9qwa5ZId7npj7L9CJYooKFnAtyGVSUvpa3gKxpBeqnkx1fezFGj585MyHPG9geePP92K3vJuzErpoc4fMwSuBrwEyR50qBrMttRzCb/BGdp/mTXxSGogg+LqKQUKJRkyeN9Ag6Fwd5XlbszN3rkKpBBWvUFNHBSuUDfE1b1ul53DotvSNaRMP3ZNMBlKo4m4eebtnAW8L9udg3Qx9Cjj/Sflb8CCXf99KWLIPGwtNv/lr3oZhf1qO5u2EzsVMAqNDGms5sJqMYAmRzKbr4U6RVcAbDF0cjCNZiqm+vCo1AOdKLB3mK0u8Xmn4CRcY59dewZuJF12vYxTLFLMrX+YNZCKOY2A6e+wV9a/DdVQJdugSXtiq21Wu52030fV02NJ4c3uXNI3CAt5A0tK0nIUF+RSgb52FfEXTmS4Ov5YuGJvXhn+qdzbrUHCYstDheK9sP/8wd6HVdeRyxB4sXmR2qo2l99AdzHLUC++SiX81Btn8mgkWGBZm1bymbBsULJiZQ9qjGlXW++l0HauZo/yF7nY63dYzkmgQr6fT/TjR27IzjcCbhiJlwajM7SwLIZS0BcCjK3c7wf+xyPhZP8I6lFjWm3GYtSB7vtc9jgV/PG7BG0btaAQX+AWlUYa4P/HXI2/BGwrT98v3iGdLCEYtOx8b3KzhUtzdCjfhDePr1yXc/5Vc6dvwhvHn63Jhp+Gf+HNqN+LtTNyVC1cQam19Xe3ZcSvegqvtC3Dnfv/GoJvxdjVAwv2G9Px/Y14GPNTxnt3ojIf/N/T8pi0PDw8PDw8PDw8PDw8PDw8PDw8Pjz+O/wHO3slmeyNsLAAAAABJRU5ErkJggg==;" vertex="1" parent="cFM16robv6XG40BqPuE_-1">
          <mxGeometry x="-30" y="410" width="138.22" height="72" as="geometry" />
        </mxCell>
        <mxCell id="QVjArZTux4F_Zm7OXIG2-8" value="callback server" style="shape=image;verticalLabelPosition=bottom;labelBackgroundColor=default;verticalAlign=top;aspect=fixed;imageAspect=0;image=data:image/png,iVBORw0KGgoAAAANSUhEUgAAASsAAACpCAMAAABEdevhAAABgFBMVEX///9q1+T///0AAAD//v9o2ORq2OJq1+Zl1+H///z8///p9fbp9fRh1d9r2ueb4epf1OTj9vmb4eth0+T206H30aNt3O2M3OXy/P3o9fpt3uqD1+Bf1dyvqanm5ubB6u308vJn0dyAgIBn3+fIxMTW0tLP8vFy1OF9d3W86e9BkZO4s7OhnJyak5NwZmZ3bW3u7elOU1U3TVMoXGg9g4hRmqNbrrhfxdNetsZWo7FChZYzbXgxWl0aTVFVtrwgQEYiQD47P0E+eX5ny85bU1ktNDVdvcYnKyRCRkBYbWlLWFghS1VWpqpeYF3Cu71IP0MrcnFTs7AZLDpaSEsXODobVk4yWFI+g38uP0ktNEIaKCs4V1xbm58VVlgWGx0oNz4RRUceAAAuTUmfi21US0C6pId8alQ5NyrSr5XgwqK6lnUteITJrYJ1Vkj/26/syqYODx9UVEeR5NoXLSyYg2s7MjKD4d2p6N8qEwBeRzT/5ax0a1MIGhphVj2VgHKkmYDLXUWVAAAVF0lEQVR4nO1di1/bRraWhDQjC0uWsZGdsfyQnxhjCAQbKOTh8GhacJK7TbfZ2ybNXch281i4t83Cbfd291+/MyMbrKdtIkM26PsZhaCHZz6dc+bMOUcjhgkRIkSIECFChAgRIkSIECFChAgRIkSIECFChAgRIsS/N7jrbsAnikKlvNBcJFhqLiyUy7f5627RpwiusrC0vHJntdVeS0BoYKy3N77Y3FpZXKhcd9s+KVSay3dX7xkIIQEhgCEQAID/gGrrq/e7jVC+KCpzD75bR0gpAQAhZHs/5B+WhSwQFQ2Bjf2l3HW38/rR6DxcQxolhgWEG/KrwNqglLY3dwbZkq6twdeGxu4GixRFA4JJFNE+/C9WwD5LgoJB2ELGizl6TuHx48bNE7Jcp1XSAOZBQUAwubJIk6AguNa+194DJQAB0tpf5pjGozutdmt1N3vdjb8KVIqdr75ebt5mmIV9o4SJ0hQWj3oIK6ICiIU6BywdbHWbjfLjZvf7A2zzNa1290mrhBR8jtZ6VLjunkwahZ2n2wrWur07xcWWAoCG/uPO13NzzaXu9/OsAonN6qN070G2P/zx2efbmEtFe9gqsYooYClb+/Izd1Jzf1jDfgGEQFF29zQBagedbKG3r7yziqDY5wpqW03yVw6D/Mt/08YUw9LmDxqmGAolsLdzXb24EuSeYctDiBDg7poGNeVbYnYwF5wk4ZGtfL92brG0+xVzD0dkiwx7O3saJgv9sb2+V8LmHpS+K19zdyaKDrHeUBMAerCnQA08yGEWOE5iJC6Ct8zt50KPq9LTCt7B4D8zPN5KZPunEna8APrPqanvAfkNLl93fyaIxjz2N9F6q116uFGCQFvJYYFiqI6ZGya3pZkaeK9J/8/1dhLGmMfzCpZIUJuamvoBYTcMvShca3cmimUsVcoG7urUJu4rmm84D2m2FeKyo/v9P/ADbudzTcSOl9LCgoWwG4ZWP+OZ4its1jVC1csa7qr2yOUQ/lssO1DbI2KVqxTwVrrgqrknYp9VQD9OrSI8XVR+eHxFDb965J4ioBANmmpjTVPaxK5XsjYXfAnbfagRieniA61klFuIOBVa+xdExgDtM5YrwhVAX05NPdewI4Xe3Wb4DuZjwXJQdh0roXaXZxYIqVMWJm8/RNSdB7sa5Wr/Spt/tXiFuVL2Xk4daCwQS3cZpkj5sEhHuYUn0tpXDPOS7msO7ivcMS2/stoG5EpLV9v8K8WigX1QRXuJROw7oGcMQ+mYKg4ekyNcoa/MfZWiZV9h0+SKrW1hN630rHClrb9a5F7g4a90D2sSwBb6vslHrtkdPKZCubrDM8t4X2HBoqCVVWRyhVawcD37fK0VwcJ3SEFbazTyiZ7yTIdyZQkZNA6wy6DNl5kKlTnr6es9udJW2xu7uSvNWuCJRTQej0elS0fOeKbnLjKj5Vuyr9bQc8TiAV9A8xWTj5eWI5ZkzKMOsKxVOlNLBcu+R/0ohLL3X42e/3oFkKbzsYysyqKgyros65n6rfEJk9LpeLWar1ar8XR6tFNyi39+iHCPsfBsz2E+urtFayj9jxqJ+KFNl2je41YJ9snqkjniVXCVrqZkQyaDL9QgHlDwzJ0VZSMVl0b9dk5KV+sZw0jIaiKhqrKqGnqqGmX44TmE7IYCaOwT7Rece5vrJC+hQL3D2APFhQcaK/bipWj/CnjiIkw1I8siIJNYgSYDsO+nCOT/CdnID1UliUh+dUaWZVUgJ/fVArCCrNbqw7laEhWBnqlsLzp2Vu5oUEFr64p2r2vjKvdLDWKnvSdX2A2deGonXa+pJEYErCHIPuRa1f98TFQ8JgsqdDmZhAcSsegQtlcQoLkagUXzTdu+3H2k1Z4SI/ane/eeFAZ3NR7UlIvvUe5NOobMReo6zbsJPVFwAEA5E/W7hJQ3ZKwjxKa4ksVCPeZvul4QgwRJ8gFPfq1kNfZZbX2qh43afvHcaDWetLTBrxSMuYnmcjgmbqiA5JOoDkA3rkhf9bx3K/K6KJJUiz2LYLkC1mRv0ao8JFyxNF0D0UHnIl5X2fmixGoP+lx9qaG9p18vNReaxZ2tVgkJlvaiicauOCkjsh6qY+2rHPO4RBWonvI0CPnU+5bjOcxA9q9UWl2Za5Rz5ezcyirQENqbOse2AjWkr6+vGwj1c6sXXE1yLhipGlAQ3GyUkyw24yIXXDqlO7JS7hCgHPdqR/aeMmAp8UCMjHZrvtXWkcYqxsrhUZ+q13/ZFGgmWqHBVGht+0TjfHWZDFUjcUX6YLM5Es/EdaFGcnijiCbLYkV2R3Pbfj6e2WmIGnvw02zy+PAn7J4+Okwmj/963xCoQNGBCBuOgZMmGY/5OQFdBz53QJixjsgSk0+YQjUaVVgPPcia24ZQcOTgzf4/fJOkmD3GP7PJ5JsVzfRKnCcorcnE+SRGyuB7I4zaTUKIMGO9Rkxmvcc+tysIHmQVdcGrGegoOZs0WaI/yeRb4reaKXvbSUrbJQAdCFmZBCQ58DG4AnL93GZhQ51K+I99bpdwV8PFEvBohjDAVdLk6uQdqXQwubKepezZfbOAqDpNjMzSRV/l6QuuUjIYkyoCVwPfRW4qRbmC3x/PUhV8//490cLkb29bmtfF14ouFw+CqrG7SU0W16cqpo6ngP0rGC5e6bLmaTZh+2/J45PDo+JyceHow8lx8s0DxfMmKxMJisZ0rIDu1tSvp6ya70256qqpgKPrcA9qLOJwPghXXtcptfenitg5XcT+euW//+doq+Zp21j0zQSoqsteBmIIxJp5gaouXkYDCYy4g6yup1axpGaGuuOdHL5LX5cGJ4AOoAlUM8Rlb5mCoizrnq0R5Dq5QFQmLqHXMYIoOqvwLnZnHFGepZIf6VqXzMU6BUxxR/NwLUygr0aeD6anMaJR7605A+Y5w93/FARVNlJ1jBSeDLtrBQTkEhkRUBfUsReqgpyJYWRk2X1uyQLdEbbAPoMfV8uUKxLy7CJfrpSvR+WqqquqKut4Kw9u8Z9620RvTvez6xwQiELiLN77LikaS7i2CpKexgR3+yrKmXw0jW8GFhwpfpbw6BKwt3zO4bdbuHpBLtgpMMxQrn4ZVaoMSgAQ+1vhfMvSraCbQ1A14eolq0ZVOg+U8yTSYrvb2KNJYDLIzMYs17QCe5ox6hDwfK84QzpTXbvk8Bvm1vyskHKwwDC3p0jwoTOUq9HkqqZeIEE/9t/zJgsiqQtzGCz5LH0R2OfJh4vW+i0jOXJVBvV4lJCZSbhxpcaiEUuDeCLqrl2LWQ9ksnu+QzK6m80+q73KVhZb/lyhZ6NxJcWnb926RX/Ipgf6e9zELbOFdd3FWFHVkiIciY1ffB1/2otli7oRi0eJ2cA786rgtERCL3hqayueSLn0qWYz7tkD/wEVHWxomtZ6t4YEX660+8yI4CIcF6E/ZGP7HX9Mzyiiuxh2cZuoJ8fZM0ZpMlETjFR+mmqVRA6QiK7b+wZP02YOwn5fJbfhUrcpYWMIV6wCdQhIxMo/KIJeBRsXrbPQadhBmlhjWl0oDcb3uelMJl+l38+ZTHJMXncWUrMZiaFcObKKfFR39k6sWw+qtIa6xWSaDxTo1vgBru4GyRVHRgD71wk+IUvLyWQj6WQUtXGlSybHbgnYvIv3kbIeUnnnZ9tHB+bKp/XcgI45P5GLT0+5InkyNFnbLgjTY2Qg8eho7zuU00QeqQI6kk48k3GqYcZ6TOEhCoQrzY+r+kzMAzO2z0xvynpKdN6KBEkbcK4y4YKaYDdXNCpFRgV8Bbe8qd33wPqkpy03h38VEFdbfhkUHXtQIgXb+4XMMFxgmBe5pdt9KwBq4xQBxFXHNFDMELH00EAMjjh4FkDZlkP7Phgd1O74tDthVgH0Hhcjwa8BIuAA1J6FqAtmbmmAK7nKDZDFRdJRH0yfyYJ9EFTJqEakyksyYw6uVNs0ZyUgufLmKpXBOM1cIJXCnwvMzKRmYvQzM9PzEzP0IYRBrgRiOwachZh87r+6fQSnb5Uhl+Ylb67y9igKTNi4WvYLNIzB1QtPrsZH2qBUWbiyRnWrqn+kxZnHxzIyRIWnDdtFoGoLJc9dLkLk4GozwHqGvAxY1ub7WuOUpwlfrpyRUKAPr+OR7VwJeespi8anx1VdJhEGC1c1y9BRlaEwlCvLAWJqKFVczXoRgbVz1QyKq0JwXMVo4c4gV2LMMnydii4Py/rC3u0RuML3y3bSwnogA+EluEo7QemQGGCXKprevBDcqmofsoYicWu4w+G4qGCz7QvtgLi6PSZVeRriI0WM5x9zssrjaS9rS6vJVew/npOVGt/GEp99CFtpW0waANHGVSMYrlyrJH3ASwlSoEeqes8/YsL0k9OqI8onpwfkKm6MnrLvw+CG1jjGZbvjfpFnNFE5CISr0rg6+PNAnM+EoCZMPznqLL0jsdJzsUiNrYG43xw/TAnrjsvKg4NvrpEttoLh6otvlpfGqGmQqnkXmKmTqOzGFdfPQaUN/0HQHcPrpFOifbgYmDtnH/3l9fvDLwLhCrTeHCf/9dNHVjVwfa7suXAxfuG0x4Qxx0ACWRpmr9Kyg6vzmEyh8/r4OJn862owtr31dnZ2NvkhiFS9i1wRr7sfrzEu0z552p8qnsmLDq5i/VT/bpKWK7wPiKuN14Sr5IcAaoumnfYqcVHbmDYu0z7vaj0TpMzSngjB03WTrIX3x7QC5n0w9krZO6RVNccfXzhKfAb7OAjP/XaOqcl2JLShSinO+H9phKQybEZQlnpcLZ0cklK048ONgLj6QEpq/n748UooMTXBUbsjRPsqZD6IY0VmKFeC4TsflNI1ZyYj1df72y8PsRwcf5gKxr9S1qY+kArA3Y+miiG5dWcipO7d00h9hDIYoeosfDkHx8VYR+WDnD8feudOksnXu5VsMFyxtWb5p8P3AYgV0587WwCFtKcvGVVrI/imNW+usGFX3SIT51wVOovLeIhf2AuIqx2GKTeDqYTMO7liEymvo6XRvPjEmZcSSpgqxeGw4em6/YSiEQRT+MZ3g3vOK55w6iB01q2Y4E7hxVIuftA9o31VoaQ4bo4R5ezzooDiV2b5UUBscW5JZ4CHfUf0V2LSKdlplV3deijHI87vwpc8UyFw3psZhrOnxgKKi7JaJ8CnLWNuSW4BC4aDrPipyxCYqJ65DoxENG3dl5hoyun6Yqhp5xOJnWDMFav9GCBX+YTryCbbn/GT6rpbNhxwcXs82ESibi+ZjdRVkTwLYodalyIOKVwJiCu0RVY3CogrZtu1VBvqIJ/uS0aES9cN1eUwkYiP+8goqHo+zfVbyTHpPFBdS1ogiEScvdkKJudFuAoQdfdiO0FMGKf5ajyejlfzMd2NKTqA8WQodQW+QCxPywKleD4m68A9GK3HOeed518FJleF4Kjipj0qnslfVUHWdZ0kS7FIuFjxbYlnuLTPyIgnRTUADJIEh4qrWMlnDM87uCo8DMpeBckVtu5+Qw7oLXYquDygCulwyTN198JGAgFAAXqXn2OkJJqhtrWpElDtB5WrAB8QT+u+pXHekM0nS3nJnpUZAyDtVs/GVIIJyWCunhaCXKEhUncdyYdCjVGpkvhI3N2ajQB5mpp/R4C+fBBMjp5Fm4WhmZIxwDPDYwcuUFO0HI0nbmTMw7wPA7br7uN5NkCuAl3MgpT2jd2IhC7xdGJCWhLJ+NokD2B753XLg+MK62CwiHs/Q+IBVecjHE/9vEgEe0+nl+iHXPU0Jdm9yzzY44LgufIqO/cCTGTSZIVKWltLyymnjXGffRJqRAG9uNoOiqtgx0GKvDxOV4XTiFmj3PtgxGtjZV2hXEvTRVTdm1MMTK7uBjoOEkhM1Ri9ATr2HxmzPJfrT0256VGigBeXiNHonlc35tYCijOQ+WCgTFHEgT1x7g4AAKl4cK5oJWVG9NMAwPpHlufhr4CrleCZwkhnRtJDOUMCCK5R5thIjhoU5RSNQfiUPcytfTRLJjBX/ERWlKm7PNFgQ8KgMVP3MEekqntPd86hZqZ7yucdLGmuBWSv2O6opedjgkvPJKBPI6EO6kzEWxq4iFTf9jfxCTkVZyJkhRBfBOYz1Ca4YmaU1PF5dFeu5SNDo4yRs4Tq+owMKVcWjFS094yPv8nNtoPhSpjQAg09pM9YlxmLINdm6OJxwxeg4/I13WWY0OVahhQ6SpL51JM/V8H47QAcTHp1w3gsY5DV40QRCuQpYKOWqZN6LTJujbRYn1RNZQxVNR9IEEV8DSMTq3JE+cju4VxVWsGMg6V3OSbIubM7SDQ0NjMTi9XzcXN4Z/qzvxGAZ9TpeD6GGatlYvV6lZSDSPbn63yQCyh+hfYnz5QTkkQZY3zS78PAuQSLPcDfDYar0qPreIMcfQyV9/YeR7nEGOcG9DzO9kTWk/nEsBiIvZrU+lefFppB1H5AMnP+/FGeD0IJwef8DpNzcEEYd2XjRrzPi+kG4LijbwMPXn2SaLTQ5TJxF9CNpatbkvxa8bz0sVyhp2TFzJvwXtDiRz8VR+ofbwJTDFPY/0jrjjaJWN2M14AWP64UGdKF3ycT6Pv0sOuyTtToVKE/FJibw1VlC11+poM2yzfEWJloznsvMzqMqvnmDTFVfcwdaJfjCh0s3SipIpi7lEcKUet/F0Z5W8rnBL7766amOBbbGAJBe/fht8Pu8Mt/Tqj8/U3y7f3tIWvy2VHa/vHt8ezx6xtFVuMoOTs7e/LrF2D0pA7QSqu/ntCF3V9PNN31aaHxj97C/293DzTyIuIRqNK01v/97bj32oDfb8z76HO//pacJYKVPD7+59Q8QMowRSyVjNXdBtP4nTwxPfs+eXJjtLD4JvnP90SwZt8cFcvl7tYBi5yrMFJAASoIGRt3F+l7dMq/E8k6enPs9lrazxKd4zdHhKrjw+UC+X8h291f3dNLSOmtkUtpI/9BSKu1Vx8sNvheuGrhAz7v5OjmcFU8OTrB4vHbP8z3XRNwlebOn7dWW3trNYRRKpXA2l574+GLlcWF/stdaElm8RCr4e//ujHGPffTP8gD9UcNpl8+aBJWqDQWinM7T54sLz/ZWSoWs+WeCafvWOfN9H/xAzbtNyE32EOhg72rznk9gn8wmDuvPTVLJcrd5bLf8Z8bCsVuw3zd/HW35N8EPgW4IUKECBEiRIgQIUKECBEiRIgQIUKECBEiRIgQIULcUPw/k+8WijA40AUAAAAASUVORK5CYII=;imageBackground=none;" vertex="1" parent="cFM16robv6XG40BqPuE_-1">
          <mxGeometry x="400" y="470" width="159.23" height="90" as="geometry" />
        </mxCell>
        <mxCell id="QVjArZTux4F_Zm7OXIG2-11" style="edgeStyle=orthogonalEdgeStyle;rounded=0;orthogonalLoop=1;jettySize=auto;html=1;entryX=-0.02;entryY=0.877;entryDx=0;entryDy=0;entryPerimeter=0;exitX=1;exitY=0.75;exitDx=0;exitDy=0;" edge="1" parent="cFM16robv6XG40BqPuE_-1" source="cFM16robv6XG40BqPuE_-21" target="cFM16robv6XG40BqPuE_-4">
          <mxGeometry relative="1" as="geometry" />
        </mxCell>
        <mxCell id="QVjArZTux4F_Zm7OXIG2-12" value="5.2 sends text" style="edgeLabel;html=1;align=center;verticalAlign=middle;resizable=0;points=[];" vertex="1" connectable="0" parent="QVjArZTux4F_Zm7OXIG2-11">
          <mxGeometry x="0.0707" y="2" relative="1" as="geometry">
            <mxPoint as="offset" />
          </mxGeometry>
        </mxCell>
        <mxCell id="QVjArZTux4F_Zm7OXIG2-14" style="edgeStyle=orthogonalEdgeStyle;rounded=0;orthogonalLoop=1;jettySize=auto;html=1;" edge="1" parent="cFM16robv6XG40BqPuE_-1" source="QVjArZTux4F_Zm7OXIG2-8" target="cFM16robv6XG40BqPuE_-21">
          <mxGeometry relative="1" as="geometry">
            <Array as="points">
              <mxPoint x="430" y="408" />
              <mxPoint x="428" y="408" />
            </Array>
          </mxGeometry>
        </mxCell>
        <mxCell id="QVjArZTux4F_Zm7OXIG2-15" value="7.2&amp;nbsp;&lt;div&gt;sends rasa&lt;br&gt;response&lt;/div&gt;" style="edgeLabel;html=1;align=center;verticalAlign=middle;resizable=0;points=[];" vertex="1" connectable="0" parent="QVjArZTux4F_Zm7OXIG2-14">
          <mxGeometry x="0.2496" y="-2" relative="1" as="geometry">
            <mxPoint y="18" as="offset" />
          </mxGeometry>
        </mxCell>
      </root>
    </mxGraphModel>
  </diagram>
</mxfile>
